<svg xmlns="http://www.w3.org/2000/svg" width="1180" height="850" viewBox="0 0 1180 850">
<rect width="1180" height="850" fill="white"/>
<g font-family="DejaVu Sans, sans-serif" fill="#172638">
<text x="60" y="36" font-size="23" font-weight="bold">Measured nearby-speaker / microphone acoustic channel</text>
<text x="60" y="61" font-size="14">48 kHz float capture · fixed OS levels · independent random-phase held-out response · microphone arithmetic mean</text>
<line x1="60" y1="85" x2="87" y2="85" stroke="#2768bd" stroke-width="3"/>
<text x="95" y="90" font-size="13">Both speakers, peak 0.08</text>
<line x1="340" y1="85" x2="367" y2="85" stroke="#18855f" stroke-width="3"/>
<text x="375" y="90" font-size="13">Both speakers, peak 0.20</text>
<line x1="620" y1="85" x2="647" y2="85" stroke="#cc6030" stroke-width="3"/>
<text x="655" y="90" font-size="13">Both speakers, peak 0.40</text>
<line x1="900" y1="85" x2="927" y2="85" stroke="#8b55a7" stroke-width="3"/>
<text x="935" y="90" font-size="13">Right speaker, peak 0.20</text>
<text x="60" y="130" font-size="17" font-weight="bold">Linear response gain (dB)</text>
<line x1="60" y1="367.22" x2="560" y2="367.22" stroke="#dce3e9"/>
<text x="52" y="371.22" font-size="11" text-anchor="end">-30</text>
<line x1="60" y1="311.67" x2="560" y2="311.67" stroke="#dce3e9"/>
<text x="52" y="315.67" font-size="11" text-anchor="end">-20</text>
<line x1="60" y1="256.11" x2="560" y2="256.11" stroke="#dce3e9"/>
<text x="52" y="260.11" font-size="11" text-anchor="end">-10</text>
<line x1="60" y1="200.56" x2="560" y2="200.56" stroke="#dce3e9"/>
<text x="52" y="204.56" font-size="11" text-anchor="end">0</text>
<line x1="60" y1="145.00" x2="560" y2="145.00" stroke="#dce3e9"/>
<text x="52" y="149.00" font-size="11" text-anchor="end">10</text>
<line x1="60.00" y1="145" x2="60.00" y2="395" stroke="#edf0f3"/>
<text x="60.00" y="412" font-size="11" text-anchor="middle">0</text>
<line x1="143.33" y1="145" x2="143.33" y2="395" stroke="#edf0f3"/>
<text x="143.33" y="412" font-size="11" text-anchor="middle">3</text>
<line x1="226.67" y1="145" x2="226.67" y2="395" stroke="#edf0f3"/>
<text x="226.67" y="412" font-size="11" text-anchor="middle">6</text>
<line x1="310.00" y1="145" x2="310.00" y2="395" stroke="#edf0f3"/>
<text x="310.00" y="412" font-size="11" text-anchor="middle">9</text>
<line x1="393.33" y1="145" x2="393.33" y2="395" stroke="#edf0f3"/>
<text x="393.33" y="412" font-size="11" text-anchor="middle">12</text>
<line x1="476.67" y1="145" x2="476.67" y2="395" stroke="#edf0f3"/>
<text x="476.67" y="412" font-size="11" text-anchor="middle">15</text>
<line x1="560.00" y1="145" x2="560.00" y2="395" stroke="#edf0f3"/>
<text x="560.00" y="412" font-size="11" text-anchor="middle">18</text>
<text x="310.0" y="430" font-size="12" text-anchor="middle">Frequency (kHz)</text>
<polyline points="69.03,289.63 70.42,288.31 71.81,287.80 73.19,271.67 74.58,255.13 75.97,238.78 77.36,221.32 78.75,215.95 80.14,192.69 81.53,187.36 82.92,171.61 84.31,174.69 85.69,166.02 87.08,166.89 88.47,165.89 89.86,168.86 91.25,171.52 92.64,177.43 94.03,181.37 95.42,178.59 96.81,182.18 98.19,190.83 99.58,188.70 100.97,203.41 102.36,210.68 103.75,194.05 105.14,194.98 106.53,184.44 107.92,186.85 109.31,186.76 110.69,199.20 112.08,184.69 113.47,189.20 114.86,196.81 116.25,209.29 117.64,206.47 119.03,207.83 120.42,197.42 121.81,198.20 123.19,191.78 124.58,188.73 125.97,197.42 127.36,190.09 128.75,194.69 130.14,192.48 131.53,208.67 132.92,211.43 134.31,219.30 135.69,203.26 137.08,206.89 138.47,206.65 139.86,217.50 141.25,213.61 142.64,218.32 144.03,201.32 145.42,210.07 146.81,215.25 148.19,226.96 149.58,246.85 150.97,240.81 152.36,252.99 153.75,268.79 155.14,257.06 156.53,249.92 157.92,264.79 159.31,247.54 160.69,251.72 162.08,229.30 163.47,237.05 164.86,220.62 166.25,234.49 167.64,219.28 169.03,234.71 170.42,235.35 171.81,245.73 173.19,254.26 174.58,260.91 175.97,273.98 177.36,256.66 178.75,275.30 180.14,266.78 181.53,264.65 182.92,247.12 184.31,249.47 185.69,253.74 187.08,253.41 188.47,257.19 189.86,248.46 191.25,262.47 192.64,258.46 194.03,278.83 195.42,273.93 196.81,276.85 198.19,282.82 199.58,283.94 200.97,284.64 202.36,274.15 203.75,263.25 205.14,262.28 206.53,271.10 207.92,275.07 209.31,282.46 210.69,280.91 212.08,299.77 213.47,284.05 214.86,299.20 216.25,285.48 217.64,303.08 219.03,286.82 220.42,298.99 221.81,291.42 223.19,291.03 224.58,285.68 225.97,290.68 227.36,293.19 228.75,283.79 230.14,285.41 231.53,291.55 232.92,274.32 234.31,284.34 235.69,289.06 237.08,283.35 238.47,278.53 239.86,274.41 241.25,275.34 242.64,271.08 244.03,282.33 245.42,279.48 246.81,276.96 248.19,279.21 249.58,271.34 250.97,282.67 252.36,284.50 253.75,271.79 255.14,285.85 256.53,274.21 257.92,278.65 259.31,274.28 260.69,282.45 262.08,281.81 263.47,288.42 264.86,274.22 266.25,288.34 267.64,309.03 269.03,295.47 270.42,267.96 271.81,263.78 273.19,262.82 274.58,255.96 275.97,247.36 277.36,258.22 278.75,243.00 280.14,246.15 281.53,247.48 282.92,250.05 284.31,242.05 285.69,247.74 287.08,235.51 288.47,253.67 289.86,252.26 291.25,286.73 292.64,288.38 294.03,280.45 295.42,279.00 296.81,261.02 298.19,265.38 299.58,255.51 300.97,258.86 302.36,252.57 303.75,253.38 305.14,261.18 306.53,268.90 307.92,260.76 309.31,257.53 310.69,243.85 312.08,257.37 313.47,237.93 314.86,250.49 316.25,246.72 317.64,240.77 319.03,254.19 320.42,242.72 321.81,261.38 323.19,261.18 324.58,269.40 325.97,257.76 327.36,284.20 328.75,272.61 330.14,290.96 331.53,306.63 332.92,306.75 334.31,301.85 335.69,307.47 337.08,308.79 338.47,291.41 339.86,266.07 341.25,263.87 342.64,263.34 344.03,250.93 345.42,270.09 346.81,265.85 348.19,293.58 349.58,270.27 350.97,257.77 352.36,246.31 353.75,237.09 355.14,230.65 356.53,230.47 357.92,223.49 359.31,230.88 360.69,227.71 362.08,229.00 363.47,227.24 364.86,222.80 366.25,225.98 367.64,228.70 369.03,238.09 370.42,230.14 371.81,254.52 373.19,254.37 374.58,273.69 375.97,267.90 377.36,276.97 378.75,275.81 380.14,284.07 381.53,293.20 382.92,310.09 384.31,295.52 385.69,307.01 387.08,298.72 388.47,303.32 389.86,279.18 391.25,283.30 392.64,268.03 394.03,267.92 395.42,263.54 396.81,268.73 398.19,259.36 399.58,261.02 400.97,254.52 402.36,259.06 403.75,266.86 405.14,261.44 406.53,278.25 407.92,259.02 409.31,264.49 410.69,259.53 412.08,254.10 413.47,251.95 414.86,250.54 416.25,251.79 417.64,250.90 419.03,257.43 420.42,255.95 421.81,260.82 423.19,254.47 424.58,259.36 425.97,249.20 427.36,254.57 428.75,248.46 430.14,244.61 431.53,248.48 432.92,246.29 434.31,244.69 435.69,240.15 437.08,241.67 438.47,239.26 439.86,246.46 441.25,250.88 442.64,256.81 444.03,256.05 445.42,259.18 446.81,264.28 448.19,267.14 449.58,280.84 450.97,277.65 452.36,267.58 453.75,270.75 455.14,280.38 456.53,285.92 457.92,269.54 459.31,271.51 460.69,261.51 462.08,267.97 463.47,255.19 464.86,264.76 466.25,256.58 467.64,256.24 469.03,261.67 470.42,257.97 471.81,255.59 473.19,252.26 474.58,256.89 475.97,261.00 477.36,266.98 478.75,273.67 480.14,284.55 481.53,286.06 482.92,310.94 484.31,302.20 485.69,294.36 487.08,324.34 488.47,289.10 489.86,309.74 491.25,274.73 492.64,293.76 494.03,281.15 495.42,288.65 496.81,281.28 498.19,285.14 499.58,273.89 500.97,275.23 502.36,285.73 503.75,272.92 505.14,275.26 506.53,255.35 507.92,264.56 509.31,250.98 510.69,268.30 512.08,262.38 513.47,274.96 514.86,260.49 516.25,269.85 517.64,256.22 519.03,264.58 520.42,250.72 521.81,259.72 523.19,255.95 524.58,260.68 525.97,253.43 527.36,250.21 528.75,256.74 530.14,254.74 531.53,258.90 532.92,250.18 534.31,260.63 535.69,254.99 537.08,257.28 538.47,259.85 539.86,274.11 541.25,276.43 542.64,287.23 544.03,286.93 545.42,284.67 546.81,284.12 548.19,297.73 549.58,279.29 550.97,303.69 552.36,293.88 553.75,306.63 555.14,308.70 556.53,312.60 557.92,314.03 559.31,346.29" fill="none" stroke="#2768bd" stroke-width="1.3"/>
<polyline points="69.03,334.28 70.42,305.96 71.81,288.46 73.19,276.30 74.58,258.68 75.97,239.34 77.36,220.37 78.75,215.47 80.14,192.79 81.53,186.83 82.92,171.07 84.31,174.32 85.69,166.03 87.08,168.20 88.47,166.53 89.86,168.19 91.25,171.48 92.64,177.11 94.03,181.70 95.42,179.54 96.81,183.97 98.19,191.69 99.58,187.57 100.97,201.64 102.36,210.07 103.75,193.93 105.14,194.49 106.53,184.15 107.92,186.71 109.31,186.37 110.69,199.11 112.08,184.64 113.47,189.47 114.86,196.66 116.25,209.00 117.64,207.47 119.03,207.58 120.42,197.32 121.81,198.40 123.19,191.47 124.58,188.56 125.97,196.44 127.36,189.73 128.75,194.18 130.14,192.63 131.53,208.57 132.92,211.66 134.31,218.42 135.69,202.69 137.08,206.84 138.47,206.20 139.86,217.00 141.25,213.65 142.64,218.63 144.03,201.47 145.42,210.09 146.81,214.86 148.19,226.37 149.58,246.81 150.97,241.10 152.36,252.42 153.75,266.60 155.14,256.81 156.53,250.51 157.92,266.43 159.31,249.92 160.69,252.14 162.08,229.73 163.47,236.62 164.86,220.36 166.25,234.08 167.64,218.83 169.03,234.60 170.42,235.10 171.81,245.30 173.19,253.41 174.58,261.40 175.97,274.22 177.36,256.75 178.75,276.68 180.14,266.95 181.53,265.39 182.92,246.73 184.31,248.60 185.69,253.62 187.08,253.41 188.47,257.58 189.86,247.98 191.25,264.23 192.64,259.48 194.03,280.58 195.42,272.93 196.81,274.80 198.19,282.29 199.58,283.26 200.97,283.42 202.36,273.68 203.75,262.20 205.14,263.46 206.53,271.53 207.92,276.10 209.31,283.06 210.69,281.70 212.08,301.97 213.47,283.40 214.86,298.03 216.25,285.13 217.64,304.74 219.03,285.89 220.42,299.38 221.81,290.76 223.19,291.99 224.58,285.82 225.97,291.32 227.36,293.70 228.75,284.53 230.14,285.86 231.53,291.00 232.92,274.45 234.31,284.27 235.69,289.90 237.08,282.97 238.47,278.79 239.86,275.14 241.25,275.45 242.64,271.99 244.03,282.50 245.42,279.83 246.81,276.89 248.19,278.42 249.58,271.76 250.97,283.50 252.36,283.99 253.75,271.77 255.14,286.12 256.53,274.68 257.92,278.28 259.31,274.85 260.69,281.31 262.08,280.71 263.47,287.00 264.86,274.62 266.25,290.12 267.64,317.49 269.03,293.49 270.42,267.66 271.81,264.41 273.19,261.69 274.58,255.46 275.97,246.16 277.36,258.57 278.75,242.97 280.14,244.35 281.53,247.66 282.92,249.09 284.31,241.76 285.69,247.00 287.08,235.11 288.47,254.54 289.86,252.52 291.25,285.03 292.64,287.81 294.03,278.69 295.42,276.59 296.81,258.01 298.19,265.61 299.58,255.86 300.97,260.06 302.36,253.35 303.75,254.25 305.14,261.99 306.53,270.22 307.92,260.26 309.31,256.94 310.69,244.43 312.08,258.80 313.47,237.24 314.86,251.39 316.25,246.42 317.64,240.92 319.03,255.06 320.42,242.24 321.81,261.32 323.19,262.12 324.58,270.55 325.97,259.64 327.36,280.45 328.75,274.47 330.14,292.33 331.53,307.63 332.92,303.28 334.31,305.22 335.69,307.70 337.08,311.50 338.47,293.31 339.86,267.94 341.25,264.59 342.64,263.98 344.03,252.41 345.42,271.60 346.81,268.82 348.19,293.86 349.58,271.50 350.97,256.98 352.36,246.95 353.75,236.88 355.14,230.85 356.53,230.37 357.92,223.81 359.31,230.86 360.69,227.19 362.08,228.77 363.47,226.77 364.86,223.00 366.25,226.30 367.64,228.94 369.03,238.12 370.42,230.67 371.81,254.17 373.19,254.96 374.58,272.35 375.97,266.89 377.36,276.17 378.75,275.20 380.14,283.90 381.53,292.64 382.92,310.09 384.31,295.95 385.69,306.77 387.08,297.02 388.47,302.69 389.86,277.65 391.25,283.18 392.64,267.42 394.03,269.66 395.42,263.65 396.81,269.43 398.19,259.16 399.58,262.34 400.97,255.26 402.36,259.42 403.75,266.85 405.14,261.61 406.53,276.29 407.92,259.94 409.31,262.92 410.69,260.50 412.08,252.33 413.47,251.96 414.86,249.48 416.25,252.23 417.64,249.87 419.03,257.47 420.42,255.48 421.81,260.44 423.19,253.70 424.58,258.24 425.97,250.15 427.36,253.39 428.75,249.43 430.14,244.20 431.53,249.73 432.92,246.04 434.31,245.25 435.69,239.10 437.08,242.29 438.47,238.97 439.86,246.43 441.25,251.05 442.64,255.93 444.03,255.62 445.42,258.11 446.81,263.75 448.19,266.49 449.58,279.47 450.97,275.97 452.36,266.68 453.75,271.78 455.14,279.14 456.53,285.03 457.92,271.66 459.31,273.07 460.69,261.24 462.08,267.55 463.47,256.68 464.86,262.95 466.25,257.62 467.64,255.83 469.03,262.00 470.42,257.46 471.81,255.87 473.19,253.36 474.58,257.61 475.97,262.29 477.36,266.17 478.75,276.37 480.14,281.68 481.53,290.95 482.92,311.67 484.31,301.69 485.69,294.28 487.08,321.67 488.47,287.53 489.86,310.57 491.25,274.71 492.64,292.24 494.03,281.80 495.42,289.27 496.81,278.86 498.19,284.97 499.58,272.71 500.97,275.70 502.36,284.76 503.75,271.60 505.14,274.89 506.53,254.58 507.92,263.12 509.31,250.07 510.69,268.37 512.08,260.64 513.47,275.89 514.86,259.76 516.25,268.73 517.64,255.42 519.03,264.41 520.42,248.53 521.81,261.51 523.19,253.84 524.58,260.66 525.97,251.04 527.36,250.83 528.75,255.05 530.14,254.63 531.53,256.42 532.92,248.15 534.31,261.74 535.69,254.02 537.08,259.70 538.47,259.71 539.86,275.52 541.25,273.41 542.64,290.69 544.03,283.65 545.42,284.41 546.81,281.48 548.19,300.85 549.58,278.86 550.97,304.59 552.36,291.17 553.75,308.91 555.14,308.04 556.53,313.52 557.92,317.67 559.31,340.69" fill="none" stroke="#18855f" stroke-width="1.3"/>
<polyline points="69.03,331.46 70.42,314.75 71.81,296.19 73.19,276.57 74.58,257.86 75.97,239.89 77.36,220.83 78.75,215.47 80.14,191.32 81.53,187.21 82.92,171.59 84.31,174.71 85.69,166.42 87.08,168.29 88.47,167.47 89.86,167.25 91.25,171.19 92.64,176.47 94.03,181.49 95.42,180.17 96.81,185.21 98.19,193.03 99.58,187.75 100.97,200.69 102.36,210.48 103.75,195.56 105.14,193.49 106.53,183.13 107.92,186.15 109.31,186.22 110.69,199.27 112.08,185.05 113.47,189.59 114.86,196.97 116.25,209.65 117.64,208.28 119.03,207.45 120.42,196.97 121.81,198.41 123.19,191.67 124.58,188.64 125.97,196.31 127.36,189.29 128.75,194.19 130.14,192.62 131.53,208.29 132.92,212.08 134.31,218.49 135.69,202.62 137.08,206.97 138.47,206.12 139.86,217.09 141.25,213.89 142.64,218.16 144.03,201.09 145.42,209.94 146.81,214.78 148.19,226.60 149.58,246.49 150.97,241.39 152.36,253.28 153.75,266.90 155.14,256.84 156.53,250.65 157.92,264.90 159.31,251.11 160.69,254.74 162.08,231.19 163.47,236.05 164.86,219.69 166.25,232.99 167.64,218.52 169.03,234.23 170.42,234.90 171.81,244.55 173.19,252.47 174.58,260.69 175.97,274.00 177.36,256.05 178.75,276.71 180.14,267.11 181.53,265.52 182.92,247.17 184.31,248.50 185.69,254.42 187.08,254.13 188.47,258.91 189.86,247.79 191.25,263.94 192.64,260.08 194.03,281.47 195.42,271.89 196.81,273.63 198.19,281.79 199.58,283.85 200.97,283.17 202.36,273.71 203.75,261.81 205.14,263.01 206.53,271.23 207.92,275.54 209.31,283.66 210.69,280.41 212.08,302.76 213.47,282.66 214.86,298.48 216.25,284.78 217.64,304.09 219.03,285.61 220.42,298.92 221.81,291.29 223.19,292.40 224.58,286.45 225.97,291.11 227.36,293.19 228.75,285.23 230.14,286.02 231.53,291.29 232.92,274.68 234.31,284.17 235.69,289.98 237.08,282.84 238.47,279.14 239.86,275.21 241.25,276.09 242.64,271.52 244.03,282.90 245.42,279.29 246.81,276.80 248.19,277.57 249.58,272.56 250.97,282.97 252.36,284.75 253.75,271.76 255.14,286.51 256.53,275.37 257.92,277.57 259.31,275.44 260.69,282.18 262.08,280.85 263.47,289.95 264.86,275.25 266.25,289.56 267.64,317.20 269.03,291.88 270.42,266.35 271.81,263.94 273.19,260.60 274.58,255.21 275.97,245.54 277.36,259.00 278.75,242.92 280.14,244.30 281.53,247.39 282.92,249.53 284.31,242.53 285.69,247.21 287.08,235.21 288.47,253.68 289.86,252.66 291.25,284.50 292.64,287.54 294.03,280.03 295.42,279.52 296.81,258.42 298.19,266.60 299.58,254.53 300.97,259.77 302.36,253.40 303.75,254.46 305.14,261.68 306.53,271.17 307.92,261.40 309.31,258.50 310.69,243.04 312.08,260.39 313.47,238.57 314.86,252.63 316.25,247.20 317.64,242.25 319.03,253.42 320.42,244.29 321.81,260.00 323.19,262.18 324.58,271.24 325.97,259.18 327.36,280.58 328.75,275.24 330.14,290.95 331.53,308.50 332.92,304.11 334.31,306.95 335.69,311.98 337.08,312.57 338.47,293.56 339.86,269.47 341.25,264.89 342.64,264.05 344.03,253.59 345.42,270.08 346.81,270.25 348.19,291.93 349.58,272.62 350.97,256.39 352.36,248.34 353.75,236.49 355.14,231.36 356.53,230.68 357.92,224.02 359.31,231.09 360.69,227.65 362.08,228.75 363.47,226.86 364.86,223.60 366.25,225.83 367.64,228.85 369.03,238.02 370.42,230.65 371.81,253.01 373.19,255.81 374.58,272.54 375.97,267.44 377.36,275.00 378.75,275.94 380.14,282.33 381.53,289.71 382.92,310.47 384.31,296.08 385.69,306.62 387.08,298.81 388.47,303.61 389.86,278.23 391.25,283.03 392.64,268.67 394.03,269.60 395.42,263.12 396.81,269.34 398.19,258.84 399.58,262.73 400.97,254.61 402.36,259.99 403.75,267.53 405.14,261.99 406.53,274.91 407.92,261.02 409.31,261.61 410.69,261.83 412.08,252.18 413.47,252.43 414.86,249.11 416.25,252.83 417.64,249.13 419.03,257.55 420.42,255.85 421.81,259.72 423.19,253.68 424.58,257.82 425.97,250.10 427.36,253.07 428.75,249.52 430.14,242.76 431.53,251.04 432.92,245.31 434.31,245.80 435.69,238.49 437.08,243.17 438.47,238.33 439.86,246.78 441.25,250.19 442.64,256.53 444.03,255.74 445.42,257.43 446.81,264.74 448.19,266.32 449.58,279.56 450.97,277.73 452.36,269.26 453.75,270.81 455.14,281.22 456.53,288.00 457.92,272.00 459.31,271.25 460.69,264.28 462.08,267.54 463.47,258.67 464.86,262.32 466.25,260.28 467.64,256.40 469.03,263.01 470.42,257.46 471.81,256.90 473.19,253.83 474.58,257.96 475.97,263.32 477.36,266.07 478.75,280.19 480.14,281.68 481.53,292.60 482.92,308.07 484.31,305.73 485.69,293.09 487.08,321.08 488.47,286.42 489.86,305.74 491.25,273.15 492.64,289.35 494.03,280.99 495.42,286.20 496.81,277.87 498.19,284.43 499.58,273.32 500.97,273.12 502.36,284.33 503.75,271.32 505.14,275.17 506.53,253.90 507.92,262.56 509.31,249.72 510.69,266.66 512.08,259.02 513.47,276.68 514.86,257.84 516.25,270.63 517.64,255.09 519.03,265.15 520.42,248.74 521.81,261.68 523.19,253.65 524.58,261.57 525.97,251.56 527.36,251.41 528.75,255.27 530.14,255.85 531.53,257.89 532.92,247.40 534.31,262.23 535.69,253.66 537.08,260.06 538.47,257.63 539.86,276.61 541.25,270.96 542.64,292.60 544.03,284.73 545.42,288.58 546.81,283.64 548.19,299.87 549.58,278.40 550.97,304.86 552.36,291.85 553.75,311.00 555.14,312.49 556.53,313.69 557.92,315.46 559.31,338.29" fill="none" stroke="#cc6030" stroke-width="1.3"/>
<polyline points="69.03,349.13 70.42,330.38 71.81,310.05 73.19,298.66 74.58,277.85 75.97,260.55 77.36,247.67 78.75,239.53 80.14,222.05 81.53,211.86 82.92,196.60 84.31,197.94 85.69,197.39 87.08,198.50 88.47,225.19 89.86,223.09 91.25,226.75 92.64,225.72 94.03,247.26 95.42,228.98 96.81,242.56 98.19,268.89 99.58,261.56 100.97,257.14 102.36,263.01 103.75,233.07 105.14,227.53 106.53,217.79 107.92,218.86 109.31,219.32 110.69,228.02 112.08,211.03 113.47,221.53 114.86,232.56 116.25,248.56 117.64,242.01 119.03,244.29 120.42,230.94 121.81,232.74 123.19,229.59 124.58,228.51 125.97,235.00 127.36,230.04 128.75,235.11 130.14,236.17 131.53,249.54 132.92,240.58 134.31,249.16 135.69,241.15 137.08,248.76 138.47,258.38 139.86,274.47 141.25,271.21 142.64,276.05 144.03,244.21 145.42,250.20 146.81,251.70 148.19,264.18 149.58,282.61 150.97,268.16 152.36,289.36 153.75,312.56 155.14,293.79 156.53,286.56 157.92,293.54 159.31,293.73 160.69,294.37 162.08,274.42 163.47,271.75 164.86,258.31 166.25,277.36 167.64,270.04 169.03,290.49 170.42,280.60 171.81,277.00 173.19,289.52 174.58,289.13 175.97,318.36 177.36,311.27 178.75,303.86 180.14,321.35 181.53,291.30 182.92,284.82 184.31,283.38 185.69,292.63 187.08,304.19 188.47,301.83 189.86,288.53 191.25,290.77 192.64,289.48 194.03,309.03 195.42,294.72 196.81,302.31 198.19,297.08 199.58,309.81 200.97,296.49 202.36,278.30 203.75,273.48 205.14,273.62 206.53,280.55 207.92,283.18 209.31,295.18 210.69,302.36 212.08,323.09 213.47,318.41 214.86,318.99 216.25,306.48 217.64,317.61 219.03,300.81 220.42,314.25 221.81,304.54 223.19,308.32 224.58,306.73 225.97,309.54 227.36,324.31 228.75,312.72 230.14,320.72 231.53,311.48 232.92,296.28 234.31,296.50 235.69,305.60 237.08,303.35 238.47,297.78 239.86,293.40 241.25,289.63 242.64,291.55 244.03,298.66 245.42,312.56 246.81,305.30 248.19,320.20 249.58,317.14 250.97,338.15 252.36,339.64 253.75,339.40 255.14,358.32 256.53,328.98 257.92,333.97 259.31,338.96 260.69,340.27 262.08,329.57 263.47,337.41 264.86,311.49 266.25,335.60 267.64,311.18 269.03,314.59 270.42,294.27 271.81,298.81 273.19,312.56 274.58,308.70 275.97,301.84 277.36,305.93 278.75,300.53 280.14,300.59 281.53,307.72 282.92,310.88 284.31,294.52 285.69,284.60 287.08,277.08 288.47,278.26 289.86,271.44 291.25,274.37 292.64,261.07 294.03,250.23 295.42,258.83 296.81,244.34 298.19,267.44 299.58,264.83 300.97,272.97 302.36,288.43 303.75,295.47 305.14,294.40 306.53,305.07 307.92,306.79 309.31,310.10 310.69,284.52 312.08,306.88 313.47,276.42 314.86,288.56 316.25,270.23 317.64,257.16 319.03,261.42 320.42,245.69 321.81,251.32 323.19,253.18 324.58,255.38 325.97,250.07 327.36,262.83 328.75,265.18 330.14,271.76 331.53,284.93 332.92,280.28 334.31,291.76 335.69,310.55 337.08,305.12 338.47,308.35 339.86,297.54 341.25,295.65 342.64,295.17 344.03,281.22 345.42,310.86 346.81,294.80 348.19,332.72 349.58,324.47 350.97,314.16 352.36,300.44 353.75,291.06 355.14,288.19 356.53,281.53 357.92,270.49 359.31,272.66 360.69,267.59 362.08,263.22 363.47,255.49 364.86,251.95 366.25,253.16 367.64,261.76 369.03,269.08 370.42,259.19 371.81,282.28 373.19,276.85 374.58,290.86 375.97,291.24 377.36,305.42 378.75,299.75 380.14,311.08 381.53,331.36 382.92,313.86 384.31,329.41 385.69,301.67 387.08,308.81 388.47,320.62 389.86,296.58 391.25,300.04 392.64,295.55 394.03,292.93 395.42,286.46 396.81,306.32 398.19,298.94 399.58,306.37 400.97,303.25 402.36,317.10 403.75,322.59 405.14,322.39 406.53,303.26 407.92,314.71 409.31,293.15 410.69,295.52 412.08,273.09 413.47,279.55 414.86,267.77 416.25,274.99 417.64,271.35 419.03,274.87 420.42,277.11 421.81,281.68 423.19,279.18 424.58,281.39 425.97,284.89 427.36,285.01 428.75,284.59 430.14,287.43 431.53,296.63 432.92,304.52 434.31,306.39 435.69,295.74 437.08,299.24 438.47,292.98 439.86,306.89 441.25,312.15 442.64,344.11 444.03,340.96 445.42,329.53 446.81,328.83 448.19,340.13 449.58,339.82 450.97,321.50 452.36,327.59 453.75,330.08 455.14,318.46 456.53,314.73 457.92,327.17 459.31,298.82 460.69,305.02 462.08,284.62 463.47,292.02 464.86,271.48 466.25,282.00 467.64,269.61 469.03,276.63 470.42,267.07 471.81,280.26 473.19,276.26 474.58,277.97 475.97,288.01 477.36,289.95 478.75,297.84 480.14,303.94 481.53,314.20 482.92,334.23 484.31,328.26 485.69,334.99 487.08,359.40 488.47,324.82 489.86,356.20 491.25,324.44 492.64,350.64 494.03,352.75 495.42,363.59 496.81,352.01 498.19,351.67 499.58,370.84 500.97,348.75 502.36,338.74 503.75,323.12 505.14,306.99 506.53,304.99 507.92,295.61 509.31,301.23 510.69,299.29 512.08,289.93 513.47,294.14 514.86,285.74 516.25,286.91 517.64,280.74 519.03,285.06 520.42,279.52 521.81,280.99 523.19,280.36 524.58,284.14 525.97,278.01 527.36,278.65 528.75,280.96 530.14,284.80 531.53,284.04 532.92,281.39 534.31,287.81 535.69,288.31 537.08,295.67 538.47,290.59 539.86,302.14 541.25,307.53 542.64,317.58 544.03,337.26 545.42,329.31 546.81,361.04 548.19,360.24 549.58,364.81 550.97,332.94 552.36,370.04 553.75,351.30 555.14,341.64 556.53,346.66 557.92,318.77 559.31,331.63" fill="none" stroke="#8b55a7" stroke-width="1.3"/>
<text x="655" y="130" font-size="17" font-weight="bold">Signal / held-out residual (dB)</text>
<line x1="655" y1="395.00" x2="1115" y2="395.00" stroke="#dce3e9"/>
<text x="647" y="399.00" font-size="11" text-anchor="end">-10</text>
<line x1="655" y1="345.00" x2="1115" y2="345.00" stroke="#dce3e9"/>
<text x="647" y="349.00" font-size="11" text-anchor="end">0</text>
<line x1="655" y1="295.00" x2="1115" y2="295.00" stroke="#dce3e9"/>
<text x="647" y="299.00" font-size="11" text-anchor="end">10</text>
<line x1="655" y1="245.00" x2="1115" y2="245.00" stroke="#dce3e9"/>
<text x="647" y="249.00" font-size="11" text-anchor="end">20</text>
<line x1="655" y1="195.00" x2="1115" y2="195.00" stroke="#dce3e9"/>
<text x="647" y="199.00" font-size="11" text-anchor="end">30</text>
<line x1="655" y1="145.00" x2="1115" y2="145.00" stroke="#dce3e9"/>
<text x="647" y="149.00" font-size="11" text-anchor="end">40</text>
<line x1="655.00" y1="145" x2="655.00" y2="395" stroke="#edf0f3"/>
<text x="655.00" y="412" font-size="11" text-anchor="middle">0</text>
<line x1="731.67" y1="145" x2="731.67" y2="395" stroke="#edf0f3"/>
<text x="731.67" y="412" font-size="11" text-anchor="middle">3</text>
<line x1="808.33" y1="145" x2="808.33" y2="395" stroke="#edf0f3"/>
<text x="808.33" y="412" font-size="11" text-anchor="middle">6</text>
<line x1="885.00" y1="145" x2="885.00" y2="395" stroke="#edf0f3"/>
<text x="885.00" y="412" font-size="11" text-anchor="middle">9</text>
<line x1="961.67" y1="145" x2="961.67" y2="395" stroke="#edf0f3"/>
<text x="961.67" y="412" font-size="11" text-anchor="middle">12</text>
<line x1="1038.33" y1="145" x2="1038.33" y2="395" stroke="#edf0f3"/>
<text x="1038.33" y="412" font-size="11" text-anchor="middle">15</text>
<line x1="1115.00" y1="145" x2="1115.00" y2="395" stroke="#edf0f3"/>
<text x="1115.00" y="412" font-size="11" text-anchor="middle">18</text>
<text x="885.0" y="430" font-size="12" text-anchor="middle">Frequency (kHz)</text>
<polyline points="663.31,395.00 664.58,395.00 665.86,395.00 667.14,395.00 668.42,354.18 669.69,337.73 670.97,317.29 672.25,315.34 673.53,301.19 674.81,284.63 676.08,261.21 677.36,266.61 678.64,273.03 679.92,253.28 681.19,260.34 682.47,268.67 683.75,256.28 685.03,250.57 686.31,254.33 687.58,252.58 688.86,253.67 690.14,257.91 691.42,263.22 692.69,270.79 693.97,276.63 695.25,261.86 696.53,257.98 697.81,251.71 699.08,254.78 700.36,260.79 701.64,279.68 702.92,264.33 704.19,266.96 705.47,276.23 706.75,279.68 708.03,277.06 709.31,275.31 710.58,275.53 711.86,263.63 713.14,251.73 714.42,247.16 715.69,245.42 716.97,237.09 718.25,236.54 719.53,238.87 720.81,243.96 722.08,251.78 723.36,252.96 724.64,239.94 725.92,239.79 727.19,236.59 728.47,245.35 729.75,240.32 731.03,244.41 732.31,229.61 733.58,236.69 734.86,245.31 736.14,257.19 737.42,270.72 738.69,263.60 739.97,271.42 741.25,283.29 742.53,273.01 743.81,268.64 745.08,283.09 746.36,273.83 747.64,271.88 748.92,255.39 750.19,258.04 751.47,242.79 752.75,248.05 754.03,238.39 755.31,247.77 756.58,247.21 757.86,253.58 759.14,259.51 760.42,267.47 761.69,277.03 762.97,266.27 764.25,278.35 765.53,269.89 766.81,268.03 768.08,254.90 769.36,255.41 770.64,258.81 771.92,257.48 773.19,260.63 774.47,256.97 775.75,262.26 777.03,263.54 778.31,278.10 779.58,277.92 780.86,277.42 782.14,283.44 783.42,283.64 784.69,284.39 785.97,279.73 787.25,269.44 788.53,265.61 789.81,274.56 791.08,279.69 792.36,288.41 793.64,281.68 794.92,294.99 796.19,288.30 797.47,295.54 798.75,289.26 800.03,299.21 801.31,289.46 802.58,295.85 803.86,289.39 805.14,290.46 806.42,288.36 807.69,293.08 808.97,293.87 810.25,286.98 811.53,286.09 812.81,286.96 814.08,278.21 815.36,284.95 816.64,289.82 817.92,283.66 819.19,281.78 820.47,275.23 821.75,275.52 823.03,273.17 824.31,283.02 825.58,278.87 826.86,280.18 828.14,279.23 829.42,273.72 830.69,283.63 831.97,283.68 833.25,276.50 834.53,284.09 835.81,275.78 837.08,278.57 838.36,277.51 839.64,281.73 840.92,283.98 842.19,286.27 843.47,277.95 844.75,287.32 846.03,302.83 847.31,294.66 848.58,271.65 849.86,265.54 851.14,266.26 852.42,262.09 853.69,253.76 854.97,254.53 856.25,249.06 857.53,250.35 858.81,253.74 860.08,255.32 861.36,249.37 862.64,251.77 863.92,243.37 865.19,256.18 866.47,256.55 867.75,282.73 869.03,292.42 870.31,287.85 871.58,278.59 872.86,266.16 874.14,268.53 875.42,261.37 876.69,260.70 877.97,258.41 879.25,259.05 880.53,266.41 881.81,269.62 883.08,265.82 884.36,261.45 885.64,252.55 886.92,261.51 888.19,247.55 889.47,255.34 890.75,252.21 892.03,247.35 893.31,257.28 894.58,249.34 895.86,266.44 897.14,264.18 898.42,270.76 899.69,265.02 900.97,279.63 902.25,276.88 903.53,293.15 904.81,305.72 906.08,300.73 907.36,300.92 908.64,307.73 909.92,306.93 911.19,287.99 912.47,273.16 913.75,266.45 915.03,264.28 916.31,258.54 917.58,271.79 918.86,270.78 920.14,288.37 921.42,275.67 922.69,266.81 923.97,253.43 925.25,247.00 926.53,241.44 927.81,240.82 929.08,236.44 930.36,240.77 931.64,237.94 932.92,240.95 934.19,237.88 935.47,237.38 936.75,240.20 938.03,238.61 939.31,245.76 940.58,243.97 941.86,257.93 943.14,260.08 944.42,275.28 945.69,272.53 946.97,277.61 948.25,276.20 949.53,286.13 950.81,294.49 952.08,306.21 953.36,298.25 954.64,307.94 955.92,301.08 957.19,300.58 958.47,283.75 959.75,284.01 961.03,273.64 962.31,272.59 963.58,269.67 964.86,274.20 966.14,268.83 967.42,268.16 968.69,265.27 969.97,266.14 971.25,272.99 972.53,269.85 973.81,277.26 975.08,269.04 976.36,271.52 977.64,264.56 978.92,262.88 980.19,259.37 981.47,259.33 982.75,260.66 984.03,260.38 985.31,264.60 986.58,265.92 987.86,267.98 989.14,262.61 990.42,267.50 991.69,258.98 992.97,263.21 994.25,258.45 995.53,255.53 996.81,256.92 998.08,258.34 999.36,257.12 1000.64,252.00 1001.92,253.51 1003.19,253.34 1004.47,256.56 1005.75,260.37 1007.03,264.95 1008.31,265.10 1009.58,267.24 1010.86,271.04 1012.14,275.54 1013.42,285.20 1014.69,284.95 1015.97,276.14 1017.25,278.63 1018.53,283.29 1019.81,293.25 1021.08,283.12 1022.36,281.43 1023.64,272.27 1024.92,279.37 1026.19,268.84 1027.47,271.46 1028.75,267.19 1030.03,268.80 1031.31,270.54 1032.58,270.11 1033.86,269.62 1035.14,268.09 1036.42,269.18 1037.69,275.08 1038.97,281.13 1040.25,282.57 1041.53,295.82 1042.81,297.48 1044.08,314.03 1045.36,312.80 1046.64,302.85 1047.92,319.00 1049.19,300.72 1050.47,312.84 1051.75,287.71 1053.03,299.04 1054.31,292.66 1055.58,297.82 1056.86,294.67 1058.14,290.02 1059.42,287.43 1060.69,290.42 1061.97,295.14 1063.25,284.57 1064.53,283.67 1065.81,273.72 1067.08,276.39 1068.36,267.42 1069.64,280.23 1070.92,276.71 1072.19,288.00 1073.47,280.07 1074.75,285.26 1076.03,277.35 1077.31,302.91 1078.58,301.72 1079.86,279.17 1081.14,277.65 1082.42,283.91 1083.69,348.86 1084.97,333.62 1086.25,283.52 1087.53,288.93 1088.81,284.23 1090.08,321.54 1091.36,291.84 1092.64,276.07 1093.92,275.74 1095.19,284.90 1096.47,305.00 1097.75,294.67 1099.03,299.92 1100.31,298.34 1101.58,300.21 1102.86,303.53 1104.14,309.80 1105.42,298.24 1106.69,309.63 1107.97,311.94 1109.25,317.12 1110.53,323.07 1111.81,325.92 1113.08,329.71 1114.36,352.41" fill="none" stroke="#2768bd" stroke-width="1.3"/>
<polyline points="663.31,395.00 664.58,395.00 665.86,375.65 667.14,357.03 668.42,315.03 669.69,296.62 670.97,276.17 672.25,270.53 673.53,258.20 674.81,245.17 676.08,221.64 677.36,225.97 678.64,232.73 679.92,216.32 681.19,220.82 682.47,230.13 683.75,217.81 685.03,211.83 686.31,216.06 687.58,215.17 688.86,219.58 690.14,219.69 691.42,223.31 692.69,230.32 693.97,235.26 695.25,225.24 696.53,219.36 697.81,213.78 699.08,214.01 700.36,223.69 701.64,239.80 702.92,223.29 704.19,229.52 705.47,236.97 706.75,240.96 708.03,241.09 709.31,235.75 710.58,233.51 711.86,224.58 713.14,213.02 714.42,207.75 715.69,207.52 716.97,198.30 718.25,199.00 719.53,197.52 720.81,207.31 722.08,213.32 723.36,215.22 724.64,202.81 725.92,201.23 727.19,200.94 728.47,206.76 729.75,205.34 731.03,207.79 732.31,193.85 733.58,201.38 734.86,210.85 736.14,219.05 737.42,234.53 738.69,228.08 739.97,235.40 741.25,247.29 742.53,237.11 743.81,233.86 745.08,248.78 746.36,240.54 747.64,240.45 748.92,222.63 750.19,224.68 751.47,209.33 752.75,214.40 754.03,203.63 755.31,212.94 756.58,210.86 757.86,217.51 759.14,224.98 760.42,235.41 761.69,243.26 762.97,230.75 764.25,245.12 765.53,238.99 766.81,236.58 768.08,221.12 769.36,220.77 770.64,224.86 771.92,225.47 773.19,228.19 774.47,223.50 775.75,228.73 777.03,230.47 778.31,242.49 779.58,240.13 780.86,240.77 782.14,245.44 783.42,247.59 784.69,247.82 785.97,238.83 787.25,229.80 788.53,228.44 789.81,236.75 791.08,242.60 792.36,249.49 793.64,246.21 794.92,260.06 796.19,249.29 797.47,257.41 798.75,252.07 800.03,263.59 801.31,252.72 802.58,258.82 803.86,251.16 805.14,252.11 806.42,248.76 807.69,254.12 808.97,255.82 810.25,250.63 811.53,247.88 812.81,246.89 814.08,239.94 815.36,248.55 816.64,255.06 817.92,245.88 819.19,242.69 820.47,237.88 821.75,239.96 823.03,236.03 824.31,242.74 825.58,241.80 826.86,244.56 828.14,240.66 829.42,238.08 830.69,248.26 831.97,246.24 833.25,238.98 834.53,247.96 835.81,241.18 837.08,244.27 838.36,243.47 839.64,248.41 840.92,251.84 842.19,250.33 843.47,245.44 844.75,258.39 846.03,273.80 847.31,262.74 848.58,242.49 849.86,234.62 851.14,232.79 852.42,228.26 853.69,222.15 854.97,222.88 856.25,219.03 857.53,217.23 858.81,222.65 860.08,226.48 861.36,216.88 862.64,220.35 863.92,214.47 865.19,229.12 866.47,233.80 867.75,258.67 869.03,268.35 870.31,257.77 871.58,252.76 872.86,242.47 874.14,242.56 875.42,237.26 876.69,236.73 877.97,233.01 879.25,231.72 880.53,238.42 881.81,242.16 883.08,238.61 884.36,235.59 885.64,228.21 886.92,235.10 888.19,225.84 889.47,232.25 890.75,231.50 892.03,224.40 893.31,233.21 894.58,224.73 895.86,238.97 897.14,239.35 898.42,245.25 899.69,236.44 900.97,248.54 902.25,246.71 903.53,265.45 904.81,277.74 906.08,274.08 907.36,273.78 908.64,277.94 909.92,278.56 911.19,262.78 912.47,244.36 913.75,237.10 915.03,236.89 916.31,231.60 917.58,243.95 918.86,244.84 920.14,262.72 921.42,248.10 922.69,235.71 923.97,222.26 925.25,217.21 926.53,210.76 927.81,209.72 929.08,205.96 930.36,207.86 931.64,205.34 932.92,206.27 934.19,207.05 935.47,203.15 936.75,204.38 938.03,207.70 939.31,213.81 940.58,212.02 941.86,224.43 943.14,226.53 944.42,242.31 945.69,238.04 946.97,241.87 948.25,244.45 949.53,252.36 950.81,261.04 952.08,271.97 953.36,263.77 954.64,273.16 955.92,263.49 957.19,267.80 958.47,250.63 959.75,251.16 961.03,240.38 962.31,241.51 963.58,238.56 964.86,244.46 966.14,238.80 967.42,236.92 968.69,233.13 969.97,234.09 971.25,238.82 972.53,242.37 973.81,245.23 975.08,239.78 976.36,239.36 977.64,238.48 978.92,229.37 980.19,229.15 981.47,224.89 982.75,227.15 984.03,227.95 985.31,230.56 986.58,230.20 987.86,232.86 989.14,229.44 990.42,231.44 991.69,228.42 992.97,228.94 994.25,228.67 995.53,227.54 996.81,226.85 998.08,225.47 999.36,225.34 1000.64,221.65 1001.92,217.96 1003.19,216.65 1004.47,223.00 1005.75,226.62 1007.03,231.31 1008.31,232.16 1009.58,234.82 1010.86,237.93 1012.14,242.49 1013.42,251.75 1014.69,251.82 1015.97,245.85 1017.25,249.93 1018.53,255.30 1019.81,264.43 1021.08,258.71 1022.36,252.64 1023.64,245.93 1024.92,246.92 1026.19,244.30 1027.47,243.24 1028.75,241.18 1030.03,236.22 1031.31,237.63 1032.58,237.88 1033.86,237.67 1035.14,234.24 1036.42,234.89 1037.69,242.30 1038.97,247.71 1040.25,254.13 1041.53,263.66 1042.81,270.97 1044.08,286.52 1045.36,284.73 1046.64,278.81 1047.92,292.77 1049.19,275.31 1050.47,287.67 1051.75,257.94 1053.03,265.94 1054.31,261.20 1055.58,268.78 1056.86,261.26 1058.14,260.06 1059.42,253.99 1060.69,257.44 1061.97,266.03 1063.25,254.59 1064.53,255.93 1065.81,246.12 1067.08,245.90 1068.36,238.53 1069.64,246.24 1070.92,245.63 1072.19,257.17 1073.47,253.98 1074.75,255.36 1076.03,248.33 1077.31,260.89 1078.58,267.19 1079.86,253.75 1081.14,247.21 1082.42,250.20 1083.69,299.26 1084.97,300.53 1086.25,248.42 1087.53,256.42 1088.81,244.71 1090.08,277.21 1091.36,262.11 1092.64,248.01 1093.92,253.28 1095.19,252.99 1096.47,276.58 1097.75,266.24 1099.03,274.41 1100.31,273.32 1101.58,270.22 1102.86,278.11 1104.14,285.58 1105.42,270.79 1106.69,280.49 1107.97,280.32 1109.25,287.73 1110.53,291.94 1111.81,292.24 1113.08,297.36 1114.36,317.44" fill="none" stroke="#18855f" stroke-width="1.3"/>
<polyline points="663.31,386.02 664.58,374.03 665.86,354.52 667.14,324.66 668.42,284.98 669.69,266.32 670.97,245.57 672.25,242.11 673.53,227.36 674.81,215.54 676.08,194.78 677.36,201.29 678.64,207.61 679.92,192.40 681.19,198.80 682.47,199.58 683.75,188.36 685.03,190.54 686.31,196.46 687.58,192.23 688.86,196.65 690.14,195.91 691.42,194.85 692.69,203.19 693.97,209.97 695.25,199.60 696.53,190.79 697.81,186.65 699.08,187.53 700.36,197.62 701.64,214.70 702.92,197.20 704.19,198.54 705.47,206.62 706.75,213.26 708.03,211.18 709.31,207.44 710.58,203.09 711.86,196.55 713.14,188.00 714.42,185.81 715.69,184.25 716.97,178.92 718.25,180.98 719.53,178.27 720.81,185.59 722.08,192.71 723.36,195.10 724.64,186.04 725.92,187.57 727.19,186.38 728.47,191.92 729.75,189.54 731.03,191.07 732.31,182.99 733.58,185.37 734.86,191.90 736.14,199.85 737.42,214.22 738.69,208.45 739.97,217.67 741.25,229.31 742.53,223.08 743.81,216.00 745.08,228.21 746.36,222.42 747.64,222.17 748.92,205.00 750.19,203.35 751.47,192.09 752.75,198.31 754.03,192.58 755.31,195.87 756.58,197.65 757.86,201.24 759.14,206.29 760.42,219.03 761.69,227.34 762.97,214.42 764.25,231.45 765.53,226.20 766.81,223.56 768.08,213.32 769.36,212.23 770.64,215.78 771.92,213.22 773.19,215.72 774.47,211.45 775.75,216.90 777.03,216.06 778.31,226.98 779.58,221.65 780.86,222.72 782.14,228.83 783.42,228.60 784.69,229.29 785.97,223.05 787.25,218.20 788.53,214.32 789.81,220.51 791.08,223.00 792.36,232.00 793.64,226.98 794.92,239.70 796.19,228.33 797.47,234.85 798.75,229.89 800.03,240.73 801.31,232.41 802.58,238.14 803.86,231.91 805.14,232.45 806.42,230.23 807.69,234.78 808.97,234.62 810.25,231.12 811.53,229.39 812.81,230.69 814.08,221.61 815.36,230.30 816.64,232.32 817.92,226.59 819.19,225.73 820.47,220.49 821.75,224.81 823.03,217.69 824.31,226.70 825.58,221.79 826.86,223.33 828.14,222.74 829.42,218.44 830.69,230.38 831.97,232.74 833.25,225.79 834.53,232.04 835.81,226.39 837.08,230.62 838.36,226.87 839.64,232.65 840.92,234.93 842.19,239.32 843.47,237.34 844.75,246.55 846.03,265.37 847.31,247.46 848.58,231.75 849.86,226.88 851.14,222.91 852.42,220.05 853.69,217.38 854.97,218.76 856.25,217.84 857.53,215.88 858.81,220.27 860.08,222.63 861.36,215.79 862.64,221.79 863.92,217.98 865.19,224.90 866.47,228.94 867.75,253.06 869.03,256.01 870.31,254.78 871.58,248.57 872.86,237.33 874.14,235.80 875.42,230.28 876.69,229.07 877.97,228.40 879.25,230.73 880.53,239.98 881.81,240.49 883.08,234.68 884.36,232.63 885.64,228.93 886.92,231.46 888.19,224.01 889.47,228.01 890.75,224.44 892.03,227.54 893.31,230.44 894.58,223.37 895.86,232.46 897.14,232.56 898.42,233.38 899.69,228.21 900.97,237.87 902.25,239.96 903.53,253.08 904.81,264.61 906.08,261.93 907.36,260.36 908.64,273.70 909.92,272.03 911.19,252.08 912.47,240.24 913.75,233.87 915.03,233.74 916.31,230.06 917.58,239.03 918.86,244.08 920.14,251.58 921.42,241.71 922.69,232.90 923.97,227.07 925.25,223.80 926.53,220.02 927.81,221.58 929.08,219.27 930.36,220.83 931.64,222.69 932.92,223.58 934.19,223.51 935.47,224.07 936.75,224.66 938.03,224.25 939.31,226.42 940.58,226.09 941.86,229.58 943.14,231.27 944.42,237.17 945.69,234.68 946.97,237.20 948.25,238.22 949.53,243.57 950.81,251.70 952.08,260.97 953.36,255.96 954.64,264.20 955.92,260.81 957.19,261.52 958.47,248.71 959.75,250.60 961.03,245.62 962.31,242.71 963.58,240.70 964.86,245.15 966.14,238.50 967.42,238.49 968.69,235.19 969.97,237.17 971.25,237.64 972.53,239.97 973.81,239.74 975.08,234.99 976.36,236.09 977.64,235.19 978.92,231.91 980.19,233.49 981.47,234.26 982.75,233.73 984.03,232.82 985.31,235.85 986.58,235.53 987.86,236.31 989.14,237.32 990.42,235.52 991.69,233.20 992.97,233.77 994.25,235.92 995.53,235.50 996.81,237.73 998.08,238.28 999.36,237.13 1000.64,236.53 1001.92,235.45 1003.19,237.36 1004.47,237.20 1005.75,241.21 1007.03,242.67 1008.31,241.54 1009.58,243.09 1010.86,243.62 1012.14,246.17 1013.42,252.35 1014.69,253.93 1015.97,247.89 1017.25,247.28 1018.53,253.13 1019.81,256.58 1021.08,249.16 1022.36,247.62 1023.64,244.09 1024.92,247.09 1026.19,246.28 1027.47,244.88 1028.75,243.87 1030.03,241.73 1031.31,244.45 1032.58,243.69 1033.86,239.73 1035.14,240.10 1036.42,239.85 1037.69,244.53 1038.97,244.87 1040.25,250.49 1041.53,253.87 1042.81,259.34 1044.08,271.45 1045.36,273.95 1046.64,267.20 1047.92,279.71 1049.19,266.27 1050.47,282.24 1051.75,262.65 1053.03,262.16 1054.31,254.96 1055.58,261.45 1056.86,257.56 1058.14,255.79 1059.42,255.74 1060.69,253.28 1061.97,259.86 1063.25,251.21 1064.53,253.82 1065.81,247.78 1067.08,247.11 1068.36,243.99 1069.64,247.76 1070.92,244.19 1072.19,253.82 1073.47,256.39 1074.75,253.59 1076.03,249.99 1077.31,249.99 1078.58,251.77 1079.86,251.93 1081.14,255.71 1082.42,253.72 1083.69,275.77 1084.97,272.65 1086.25,252.36 1087.53,252.67 1088.81,252.06 1090.08,258.83 1091.36,256.26 1092.64,252.47 1093.92,249.60 1095.19,251.37 1096.47,262.95 1097.75,264.91 1099.03,266.03 1100.31,266.39 1101.58,260.68 1102.86,268.39 1104.14,280.96 1105.42,272.95 1106.69,275.91 1107.97,275.38 1109.25,282.72 1110.53,287.77 1111.81,286.90 1113.08,296.50 1114.36,308.53" fill="none" stroke="#cc6030" stroke-width="1.3"/>
<polyline points="663.31,395.00 664.58,395.00 665.86,395.00 667.14,375.06 668.42,333.46 669.69,316.99 670.97,301.70 672.25,292.82 673.53,283.92 674.81,264.59 676.08,245.41 677.36,249.84 678.64,259.34 679.92,242.20 681.19,272.32 682.47,274.57 683.75,261.40 685.03,257.02 686.31,272.24 687.58,257.03 688.86,266.33 690.14,286.52 691.42,288.09 692.69,282.07 693.97,280.41 695.25,254.32 696.53,248.94 697.81,244.31 699.08,243.59 700.36,252.89 701.64,268.35 702.92,244.78 704.19,253.23 705.47,264.72 706.75,275.86 708.03,268.85 709.31,266.67 710.58,263.12 711.86,253.29 713.14,243.04 714.42,240.31 715.69,238.56 716.97,233.56 718.25,232.90 719.53,235.01 720.81,243.40 722.08,237.50 723.36,239.67 724.64,234.53 725.92,237.59 727.19,243.69 728.47,255.55 729.75,256.74 731.03,254.10 732.31,229.59 733.58,236.16 734.86,241.28 736.14,250.56 737.42,264.83 738.69,251.99 739.97,264.66 741.25,284.34 742.53,269.68 743.81,263.15 745.08,272.97 746.36,272.93 747.64,272.84 748.92,258.82 750.19,253.02 751.47,238.23 752.75,249.18 754.03,246.55 755.31,258.10 756.58,248.06 757.86,244.71 759.14,256.40 760.42,258.57 761.69,277.07 762.97,275.95 764.25,270.12 765.53,278.69 766.81,258.69 768.08,249.85 769.36,250.02 770.64,257.33 771.92,265.60 773.19,264.05 774.47,253.09 775.75,253.85 777.03,252.95 778.31,266.33 779.58,258.04 780.86,262.62 782.14,260.64 783.42,263.51 784.69,256.83 785.97,242.15 787.25,236.72 788.53,236.83 789.81,243.91 791.08,247.19 792.36,258.55 793.64,262.60 794.92,278.25 796.19,279.08 797.47,276.64 798.75,270.38 800.03,273.54 801.31,264.03 802.58,270.53 803.86,263.51 805.14,267.21 806.42,265.13 807.69,271.91 808.97,282.27 810.25,276.40 811.53,275.13 812.81,269.87 814.08,258.78 815.36,257.38 816.64,266.05 817.92,262.90 819.19,257.85 820.47,252.92 821.75,250.92 823.03,251.09 824.31,257.46 825.58,266.32 826.86,266.08 828.14,273.80 829.42,276.71 830.69,296.40 831.97,293.32 833.25,298.31 834.53,308.15 835.81,292.13 837.08,289.45 838.36,297.16 839.64,297.80 840.92,290.91 842.19,288.86 843.47,273.77 844.75,292.79 846.03,274.58 847.31,270.51 848.58,259.39 849.86,262.10 851.14,270.66 852.42,270.92 853.69,265.31 854.97,266.97 856.25,268.35 857.53,268.02 858.81,268.82 860.08,275.54 861.36,258.43 862.64,251.48 863.92,243.21 865.19,246.41 866.47,241.25 867.75,241.61 869.03,232.10 870.31,225.80 871.58,227.28 872.86,219.15 874.14,233.35 875.42,235.11 876.69,240.74 877.97,256.00 879.25,261.31 880.53,266.60 881.81,273.24 883.08,276.21 884.36,272.27 885.64,259.35 886.92,267.55 888.19,251.75 889.47,255.08 890.75,240.75 892.03,232.45 893.31,231.80 894.58,219.31 895.86,223.62 897.14,224.08 898.42,225.43 899.69,222.33 900.97,230.12 902.25,234.02 903.53,242.89 904.81,249.03 906.08,248.82 907.36,257.83 908.64,270.03 909.92,269.87 911.19,272.58 912.47,265.14 913.75,257.81 915.03,257.03 916.31,252.64 917.58,268.38 918.86,266.18 920.14,284.45 921.42,286.42 922.69,278.06 923.97,268.48 925.25,260.49 926.53,254.15 927.81,248.72 929.08,241.04 930.36,241.16 931.64,234.96 932.92,231.48 934.19,225.21 935.47,223.12 936.75,226.44 938.03,231.07 939.31,234.51 940.58,235.55 941.86,247.26 943.14,246.44 944.42,257.06 945.69,256.61 946.97,264.50 948.25,263.48 949.53,274.15 950.81,285.73 952.08,277.73 953.36,283.89 954.64,264.90 955.92,271.43 957.19,276.17 958.47,262.42 959.75,262.23 961.03,257.38 962.31,256.65 963.58,254.06 964.86,266.20 966.14,264.33 967.42,269.98 968.69,271.67 969.97,277.48 971.25,282.98 972.53,285.04 973.81,269.86 975.08,275.09 976.36,261.20 977.64,257.48 978.92,242.36 980.19,243.85 981.47,239.14 982.75,243.44 984.03,240.66 985.31,244.58 986.58,246.72 987.86,249.10 989.14,247.95 990.42,250.33 991.69,253.35 992.97,251.87 994.25,250.42 995.53,255.36 996.81,258.98 998.08,269.09 999.36,268.94 1000.64,263.80 1001.92,263.13 1003.19,259.41 1004.47,268.32 1005.75,277.51 1007.03,301.23 1008.31,303.14 1009.58,291.82 1010.86,290.44 1012.14,300.83 1013.42,298.93 1014.69,288.21 1015.97,290.25 1017.25,286.52 1018.53,286.94 1019.81,284.81 1021.08,290.26 1022.36,271.89 1023.64,271.78 1024.92,256.79 1026.19,259.31 1027.47,246.95 1028.75,252.37 1030.03,241.71 1031.31,244.31 1032.58,240.77 1033.86,249.12 1035.14,246.07 1036.42,250.54 1037.69,256.78 1038.97,264.00 1040.25,267.54 1041.53,277.02 1042.81,283.76 1044.08,302.95 1045.36,296.40 1046.64,303.98 1047.92,317.20 1049.19,296.70 1050.47,315.74 1051.75,292.06 1053.03,314.65 1054.31,313.70 1055.58,325.71 1056.86,317.05 1058.14,315.58 1059.42,325.19 1060.69,317.18 1061.97,301.49 1063.25,290.38 1064.53,277.34 1065.81,274.47 1067.08,268.55 1068.36,268.34 1069.64,270.80 1070.92,265.47 1072.19,270.69 1073.47,261.61 1074.75,263.21 1076.03,260.31 1077.31,273.61 1078.58,289.16 1079.86,261.14 1081.14,263.88 1082.42,269.24 1083.69,320.65 1084.97,323.23 1086.25,264.78 1087.53,280.35 1088.81,262.19 1090.08,302.19 1091.36,279.65 1092.64,269.18 1093.92,270.77 1095.19,270.92 1096.47,296.37 1097.75,281.24 1099.03,287.22 1100.31,304.68 1101.58,304.06 1102.86,334.95 1104.14,327.17 1105.42,331.35 1106.69,308.06 1107.97,326.84 1109.25,322.68 1110.53,312.43 1111.81,316.74 1113.08,293.90 1114.36,303.01" fill="none" stroke="#8b55a7" stroke-width="1.3"/>
<text x="60" y="475" font-size="17" font-weight="bold">Held-out residual density (dB FS²/Hz)</text>
<line x1="60" y1="714.58" x2="560" y2="714.58" stroke="#dce3e9"/>
<text x="52" y="718.58" font-size="11" text-anchor="end">-120</text>
<line x1="60" y1="673.75" x2="560" y2="673.75" stroke="#dce3e9"/>
<text x="52" y="677.75" font-size="11" text-anchor="end">-110</text>
<line x1="60" y1="632.92" x2="560" y2="632.92" stroke="#dce3e9"/>
<text x="52" y="636.92" font-size="11" text-anchor="end">-100</text>
<line x1="60" y1="592.08" x2="560" y2="592.08" stroke="#dce3e9"/>
<text x="52" y="596.08" font-size="11" text-anchor="end">-90</text>
<line x1="60" y1="551.25" x2="560" y2="551.25" stroke="#dce3e9"/>
<text x="52" y="555.25" font-size="11" text-anchor="end">-80</text>
<line x1="60" y1="510.42" x2="560" y2="510.42" stroke="#dce3e9"/>
<text x="52" y="514.42" font-size="11" text-anchor="end">-70</text>
<line x1="60.00" y1="490" x2="60.00" y2="735" stroke="#edf0f3"/>
<text x="60.00" y="752" font-size="11" text-anchor="middle">0</text>
<line x1="143.33" y1="490" x2="143.33" y2="735" stroke="#edf0f3"/>
<text x="143.33" y="752" font-size="11" text-anchor="middle">3</text>
<line x1="226.67" y1="490" x2="226.67" y2="735" stroke="#edf0f3"/>
<text x="226.67" y="752" font-size="11" text-anchor="middle">6</text>
<line x1="310.00" y1="490" x2="310.00" y2="735" stroke="#edf0f3"/>
<text x="310.00" y="752" font-size="11" text-anchor="middle">9</text>
<line x1="393.33" y1="490" x2="393.33" y2="735" stroke="#edf0f3"/>
<text x="393.33" y="752" font-size="11" text-anchor="middle">12</text>
<line x1="476.67" y1="490" x2="476.67" y2="735" stroke="#edf0f3"/>
<text x="476.67" y="752" font-size="11" text-anchor="middle">15</text>
<line x1="560.00" y1="490" x2="560.00" y2="735" stroke="#edf0f3"/>
<text x="560.00" y="752" font-size="11" text-anchor="middle">18</text>
<text x="310.0" y="770" font-size="12" text-anchor="middle">Frequency (kHz)</text>
<polyline points="69.03,548.70 70.42,546.24 71.81,551.41 73.19,557.75 74.58,576.45 75.97,575.01 77.36,579.74 78.75,581.80 80.14,571.01 81.53,582.88 82.92,589.37 84.31,584.95 85.69,576.85 87.08,592.33 88.47,587.30 89.86,581.05 91.25,592.40 92.64,601.01 94.03,601.75 95.42,603.55 96.81,602.99 98.19,610.63 99.58,598.54 100.97,603.18 102.36,604.85 103.75,606.83 105.14,608.50 106.53,606.93 107.92,604.25 109.31,599.96 110.69,591.70 112.08,597.37 113.47,598.84 114.86,592.82 116.25,600.60 117.64,604.33 119.03,604.31 120.42,598.15 121.81,606.37 123.19,613.26 124.58,612.47 125.97,619.85 127.36,622.83 128.75,624.99 130.14,624.51 131.53,628.84 132.92,625.95 134.31,628.82 135.69,631.02 137.08,630.91 138.47,634.87 139.86,633.04 141.25,637.53 142.64,635.65 144.03,637.68 145.42,634.94 146.81,635.26 148.19,635.02 149.58,635.96 150.97,637.06 152.36,639.25 153.75,641.73 155.14,642.51 156.53,639.44 157.92,637.76 159.31,635.65 160.69,635.87 162.08,636.81 163.47,638.72 164.86,640.26 166.25,643.20 167.64,644.07 169.03,644.46 170.42,646.90 171.81,649.48 173.19,649.50 174.58,649.84 175.97,648.82 177.36,648.89 178.75,651.41 180.14,650.86 181.53,649.08 182.92,651.68 184.31,650.55 185.69,650.43 187.08,651.96 188.47,650.25 189.86,651.12 191.25,652.23 192.64,650.86 194.03,651.25 195.42,650.94 196.81,652.74 198.19,651.76 199.58,653.40 200.97,652.05 202.36,651.75 203.75,650.97 205.14,651.80 206.53,651.38 207.92,651.67 209.31,649.71 210.69,651.99 212.08,651.95 213.47,649.96 214.86,651.15 216.25,651.89 217.64,650.43 219.03,652.33 220.42,653.19 221.81,653.13 223.19,652.26 224.58,649.43 225.97,649.95 227.36,651.20 228.75,652.46 230.14,651.52 231.53,652.70 232.92,652.42 234.31,651.87 235.69,650.53 237.08,653.26 238.47,652.34 239.86,653.78 241.25,653.40 242.64,652.81 244.03,652.39 245.42,653.72 246.81,651.82 248.19,651.27 249.58,652.11 250.97,653.08 252.36,651.46 253.75,651.10 255.14,651.97 256.53,652.98 257.92,654.01 259.31,651.36 260.69,652.23 262.08,651.55 263.47,651.62 264.86,651.46 266.25,652.52 267.64,652.09 269.03,652.05 270.42,652.55 271.81,652.24 273.19,652.09 274.58,652.84 275.97,651.28 277.36,653.37 278.75,652.41 280.14,651.69 281.53,650.61 282.92,650.86 284.31,652.03 285.69,652.13 287.08,651.96 288.47,651.28 289.86,651.38 291.25,651.52 292.64,651.06 294.03,648.87 295.42,649.97 296.81,652.16 298.19,651.93 299.58,650.48 300.97,650.79 302.36,652.73 303.75,650.47 305.14,649.87 306.53,650.31 307.92,650.74 309.31,651.58 310.69,650.96 312.08,648.14 313.47,650.32 314.86,649.55 316.25,650.71 317.64,650.80 319.03,650.97 320.42,651.13 321.81,650.31 323.19,650.79 324.58,651.69 325.97,651.68 327.36,650.48 328.75,651.61 330.14,651.90 331.53,651.71 332.92,653.76 334.31,651.12 335.69,652.07 337.08,650.00 338.47,652.00 339.86,650.27 341.25,650.84 342.64,652.27 344.03,651.12 345.42,650.00 346.81,651.19 348.19,652.36 349.58,650.50 350.97,647.17 352.36,648.24 353.75,649.27 355.14,648.03 356.53,648.00 357.92,647.85 359.31,648.57 360.69,648.24 362.08,646.96 363.47,648.54 364.86,645.73 366.25,645.95 367.64,648.63 369.03,648.52 370.42,647.10 371.81,650.22 373.19,649.07 374.58,651.40 375.97,650.74 377.36,652.03 378.75,651.31 380.14,651.63 381.53,652.21 382.92,650.04 384.31,650.64 385.69,650.82 387.08,650.47 388.47,650.28 389.86,650.96 391.25,650.58 392.64,649.73 394.03,649.69 395.42,649.77 396.81,648.37 398.19,647.40 399.58,647.85 400.97,647.71 402.36,647.88 403.75,647.60 405.14,649.52 406.53,649.07 407.92,649.19 409.31,647.87 410.69,649.75 412.08,648.09 413.47,649.18 414.86,648.57 416.25,646.89 417.64,648.42 419.03,648.23 420.42,646.26 421.81,648.23 423.19,648.51 424.58,646.98 425.97,648.82 427.36,646.94 428.75,647.88 430.14,648.25 431.53,646.85 432.92,645.75 434.31,645.37 435.69,647.66 437.08,644.87 438.47,645.39 439.86,647.18 441.25,647.07 442.64,647.82 444.03,647.62 445.42,647.88 446.81,648.07 448.19,648.34 449.58,648.14 450.97,647.24 452.36,647.38 453.75,647.79 455.14,647.83 456.53,646.25 457.92,643.45 459.31,647.17 460.69,646.14 462.08,643.96 463.47,644.54 464.86,646.82 466.25,646.74 467.64,645.53 469.03,645.43 470.42,645.39 471.81,644.64 473.19,641.14 474.58,643.95 475.97,644.55 477.36,640.97 478.75,645.60 480.14,642.93 481.53,643.27 482.92,644.45 484.31,644.28 485.69,646.88 487.08,643.48 488.47,646.30 489.86,642.97 491.25,645.20 492.64,644.19 494.03,643.83 495.42,643.41 496.81,643.88 498.19,645.45 499.58,643.96 500.97,641.78 502.36,643.39 503.75,644.95 505.14,644.83 506.53,640.38 507.92,643.21 509.31,643.14 510.69,643.50 512.08,643.29 513.47,640.10 514.86,640.32 516.25,638.81 517.64,638.40 519.03,628.29 520.42,611.63 521.81,637.74 523.19,637.96 524.58,632.92 525.97,572.18 527.36,619.56 528.75,637.08 530.14,624.39 531.53,638.05 532.92,596.96 534.31,638.40 535.69,636.96 537.08,639.58 538.47,640.62 539.86,624.33 541.25,640.10 542.64,641.11 544.03,643.12 545.42,636.37 546.81,640.03 548.19,639.72 549.58,639.72 550.97,641.32 552.36,638.94 553.75,640.14 555.14,640.45 556.53,639.23 557.92,639.32 559.31,639.34" fill="none" stroke="#2768bd" stroke-width="1.3"/>
<polyline points="69.03,550.93 70.42,546.32 71.81,553.93 73.19,557.72 74.58,577.51 75.97,576.38 77.36,580.56 78.75,582.01 80.14,574.28 81.53,579.96 82.92,589.19 84.31,585.86 85.69,575.55 87.08,590.69 88.47,585.80 89.86,578.70 91.25,591.61 92.64,599.67 94.03,600.02 95.42,600.32 96.81,599.06 98.19,607.09 99.58,598.16 100.97,602.48 102.36,603.49 103.75,602.01 105.14,607.40 106.53,604.56 107.92,604.97 109.31,597.44 110.69,591.83 112.08,599.41 113.47,595.66 114.86,592.85 116.25,599.54 117.64,601.79 119.03,602.40 120.42,596.11 121.81,605.52 123.19,611.43 124.58,612.63 125.97,617.16 127.36,621.48 128.75,623.00 130.14,624.73 131.53,625.65 132.92,624.77 134.31,627.29 135.69,627.92 137.08,630.21 138.47,630.68 139.86,631.83 141.25,633.27 142.64,633.88 144.03,634.11 145.42,631.83 146.81,628.81 148.19,630.55 149.58,632.95 150.97,634.67 152.36,635.83 153.75,637.54 155.14,638.60 156.53,635.48 157.92,635.00 159.31,631.95 160.69,629.91 162.08,631.55 163.47,633.31 164.86,634.46 166.25,637.57 167.64,639.70 169.03,639.55 170.42,643.81 171.81,646.73 173.19,644.51 174.58,643.48 175.97,644.00 177.36,644.73 178.75,644.94 180.14,643.80 181.53,642.93 182.92,645.51 184.31,646.42 185.69,645.19 187.08,644.51 188.47,645.27 189.86,645.26 191.25,647.56 192.64,646.53 194.03,649.48 195.42,648.32 196.81,648.45 198.19,649.69 199.58,649.54 200.97,648.83 202.36,649.27 203.75,649.18 205.14,650.02 206.53,648.87 207.92,647.80 209.31,648.40 210.69,649.29 212.08,647.91 213.47,650.83 214.86,648.91 216.25,649.18 217.64,647.65 219.03,649.48 220.42,650.67 221.81,651.25 223.19,651.60 224.58,649.34 225.97,649.24 227.36,650.76 228.75,649.30 230.14,650.52 231.53,653.35 232.92,650.54 234.31,649.81 235.69,646.05 237.08,650.97 238.47,651.16 239.86,650.79 241.25,650.37 242.64,650.98 244.03,651.99 245.42,650.56 246.81,648.35 248.19,650.67 249.58,648.20 250.97,648.78 252.36,649.69 253.75,649.12 255.14,648.94 256.53,648.44 257.92,648.99 259.31,646.54 260.69,647.12 262.08,644.13 263.47,647.73 264.86,645.43 266.25,645.61 267.64,646.76 269.03,644.72 270.42,643.30 271.81,644.45 273.19,645.08 274.58,645.25 275.97,644.18 277.36,646.81 278.75,643.80 280.14,645.30 281.53,643.32 282.92,640.65 284.31,645.32 285.69,644.47 287.08,641.18 288.47,641.39 289.86,638.02 291.25,638.69 292.64,636.47 294.03,638.96 295.42,637.98 296.81,635.67 298.19,639.73 299.58,638.23 300.97,639.29 302.36,639.06 303.75,642.93 305.14,641.08 306.53,640.67 307.92,640.70 309.31,639.65 310.69,637.18 312.08,638.91 313.47,634.36 314.86,636.90 316.25,633.71 317.64,638.12 319.03,638.63 320.42,637.82 321.81,641.26 323.19,639.38 324.58,640.21 325.97,642.85 327.36,642.66 328.75,643.86 330.14,643.87 331.53,641.98 332.92,642.24 334.31,641.85 335.69,644.54 337.08,643.15 338.47,640.59 339.86,642.91 341.25,643.37 342.64,642.49 344.03,640.37 345.42,642.46 346.81,642.20 348.19,640.73 349.58,641.83 350.97,639.31 352.36,643.11 353.75,639.56 355.14,641.26 356.53,640.72 357.92,639.62 359.31,643.68 360.69,642.20 362.08,642.64 363.47,640.40 364.86,642.26 366.25,642.18 367.64,642.27 369.03,641.55 370.42,640.63 371.81,644.76 373.19,645.54 374.58,644.66 375.97,646.11 377.36,647.82 378.75,644.36 380.14,647.03 381.53,646.04 382.92,644.41 384.31,647.62 385.69,645.71 387.08,646.88 388.47,643.78 389.86,644.94 391.25,644.03 392.64,644.50 394.03,642.87 395.42,643.11 396.81,640.97 398.19,639.56 399.58,640.94 400.97,641.53 402.36,642.57 403.75,642.87 405.14,638.62 406.53,643.71 407.92,638.36 409.31,642.09 410.69,638.40 412.08,643.43 413.47,640.30 414.86,644.05 416.25,642.20 417.64,641.32 419.03,642.96 420.42,642.41 421.81,643.78 423.19,642.90 424.58,643.28 425.97,641.12 427.36,642.36 428.75,639.46 430.14,637.53 431.53,640.27 432.92,640.22 434.31,639.08 435.69,638.69 437.08,642.01 438.47,643.05 439.86,641.95 441.25,641.93 442.64,642.06 444.03,641.42 445.42,641.79 446.81,642.09 448.19,641.18 449.58,641.87 450.97,639.97 452.36,640.03 453.75,638.57 455.14,637.71 456.53,636.43 457.92,632.93 459.31,635.57 460.69,635.80 462.08,638.46 463.47,632.22 464.86,636.69 466.25,635.29 467.64,639.50 469.03,640.74 470.42,639.36 471.81,637.34 473.19,637.79 474.58,640.68 475.97,638.26 477.36,635.96 478.75,637.24 480.14,636.11 481.53,634.73 482.92,635.78 484.31,633.30 485.69,632.70 487.08,631.96 488.47,633.14 489.86,632.30 491.25,636.64 492.64,638.75 494.03,636.43 495.42,634.75 496.81,637.11 498.19,636.93 499.58,639.85 500.97,634.87 502.36,633.92 503.75,635.07 505.14,634.35 506.53,629.86 507.92,635.13 509.31,633.19 510.69,639.03 512.08,634.50 513.47,632.75 514.86,627.83 516.25,632.01 517.64,628.81 519.03,624.66 520.42,608.78 521.81,626.57 523.19,628.31 524.58,627.31 525.97,581.96 527.36,587.72 528.75,629.15 530.14,619.13 531.53,631.72 532.92,597.81 534.31,631.69 535.69,627.00 537.08,626.43 538.47,630.11 539.86,616.86 541.25,628.94 542.64,631.45 544.03,627.77 545.42,629.85 546.81,624.21 548.19,628.95 549.58,629.19 550.97,631.98 552.36,630.35 553.75,633.08 555.14,631.97 556.53,635.75 557.92,633.96 559.31,633.62" fill="none" stroke="#18855f" stroke-width="1.3"/>
<polyline points="69.03,550.01 70.42,543.71 71.81,552.08 73.19,559.01 74.58,576.48 75.97,577.15 77.36,580.32 78.75,581.96 80.14,574.15 81.53,581.10 82.92,586.81 84.31,581.79 85.69,571.77 87.08,585.06 88.47,578.88 89.86,579.52 91.25,591.71 92.64,592.10 94.03,590.99 95.42,595.12 96.81,593.40 98.19,602.41 99.58,596.94 100.97,599.74 102.36,599.16 103.75,600.23 105.14,605.46 106.53,601.38 107.92,602.07 109.31,593.32 110.69,587.40 112.08,597.01 113.47,595.51 114.86,593.21 116.25,597.44 117.64,602.44 119.03,601.65 120.42,596.60 121.81,603.69 123.19,607.01 124.58,605.42 125.97,612.19 127.36,611.76 128.75,613.56 130.14,614.71 131.53,619.17 132.92,616.57 134.31,619.85 135.69,616.61 137.08,616.86 138.47,617.32 139.86,620.26 141.25,621.48 142.64,622.76 144.03,618.17 145.42,620.21 146.81,620.09 148.19,621.23 149.58,624.66 150.97,624.94 152.36,626.45 153.75,628.80 155.14,624.76 156.53,625.75 157.92,625.73 159.31,623.23 160.69,622.46 162.08,621.88 163.47,626.19 164.86,623.02 166.25,626.64 167.64,622.80 169.03,629.36 170.42,630.06 171.81,634.20 173.19,635.51 174.58,631.44 175.97,632.54 177.36,631.94 178.75,631.73 180.14,630.09 181.53,629.39 182.92,627.42 184.31,628.65 185.69,628.88 187.08,630.79 188.47,631.36 189.86,630.24 191.25,632.46 192.64,633.64 194.03,638.09 195.42,638.47 196.81,637.39 198.19,638.33 199.58,640.85 200.97,639.66 202.36,637.31 203.75,633.32 205.14,636.83 206.53,637.35 207.92,639.86 209.31,637.22 210.69,639.37 212.08,641.05 213.47,640.91 214.86,643.54 216.25,642.78 217.64,641.62 219.03,640.70 220.42,642.86 221.81,642.42 223.19,643.39 224.58,640.91 225.97,640.29 227.36,643.14 228.75,640.15 230.14,641.66 231.53,642.26 232.92,641.26 234.31,639.71 235.69,640.87 237.08,641.03 238.47,640.05 239.86,640.00 241.25,637.79 242.64,641.52 244.03,639.63 245.42,643.00 246.81,641.31 248.19,638.56 249.58,641.28 250.97,639.11 252.36,636.13 253.75,634.43 255.14,638.71 256.53,635.93 257.92,634.92 259.31,636.59 260.69,635.23 262.08,633.43 263.47,634.46 264.86,627.70 266.25,630.51 267.64,628.06 269.03,632.58 270.42,625.68 271.81,626.40 273.19,627.67 274.58,627.05 275.97,622.83 277.36,626.25 278.75,619.31 280.14,623.81 281.53,620.11 282.92,618.94 284.31,621.41 285.69,619.43 287.08,613.83 288.47,620.26 289.86,617.62 291.25,616.50 292.64,623.87 294.03,617.85 295.42,618.09 296.81,615.97 298.19,621.06 299.58,618.88 300.97,620.17 302.36,619.08 303.75,618.82 305.14,614.11 306.53,618.45 307.92,620.47 309.31,618.51 310.69,611.39 312.08,619.64 313.47,611.05 314.86,615.96 316.25,618.74 317.64,610.12 319.03,614.79 320.42,617.41 321.81,621.13 323.19,619.76 324.58,625.93 325.97,624.32 327.36,628.65 328.75,624.06 330.14,626.99 331.53,630.40 332.92,628.17 334.31,630.18 335.69,623.68 337.08,626.69 338.47,627.26 339.86,621.66 341.25,622.18 342.64,621.19 344.03,617.66 345.42,621.85 346.81,617.24 348.19,624.30 349.58,624.31 350.97,617.45 352.36,613.19 353.75,610.21 355.14,610.38 356.53,606.19 357.92,604.59 359.31,608.37 360.69,603.69 362.08,603.81 363.47,603.13 364.86,599.67 366.25,600.27 367.64,604.24 369.03,608.19 370.42,603.80 371.81,618.01 373.19,616.81 374.58,624.11 375.97,624.87 377.36,626.62 378.75,625.16 380.14,628.18 381.53,626.88 382.92,629.09 384.31,629.54 385.69,629.32 387.08,624.24 388.47,624.99 389.86,622.64 391.25,621.21 392.64,614.95 394.03,617.78 395.42,616.90 396.81,614.67 398.19,615.19 399.58,616.33 400.97,614.13 402.36,615.35 403.75,621.10 405.14,615.64 406.53,622.63 407.92,619.88 409.31,618.18 410.69,617.83 412.08,615.45 413.47,613.42 414.86,609.70 416.25,613.81 417.64,612.86 419.03,613.32 420.42,614.39 421.81,617.13 423.19,610.96 424.58,615.54 425.97,612.53 427.36,612.89 428.75,608.67 430.14,605.63 431.53,608.18 432.92,604.07 434.31,605.44 435.69,601.36 437.08,604.62 438.47,599.50 439.86,607.36 441.25,604.88 442.64,608.20 444.03,610.06 445.42,609.60 446.81,613.24 448.19,614.06 449.58,617.48 450.97,613.83 452.36,615.00 453.75,616.95 455.14,616.35 456.53,620.76 457.92,615.10 459.31,613.93 460.69,614.68 462.08,614.72 463.47,606.97 464.86,610.11 466.25,611.66 467.64,610.87 469.03,611.39 470.42,609.14 471.81,612.25 473.19,608.27 474.58,612.21 475.97,612.64 477.36,614.23 478.75,618.55 480.14,618.93 481.53,620.62 482.92,622.13 484.31,619.57 485.69,617.37 487.08,617.85 488.47,613.94 489.86,611.28 491.25,605.46 492.64,616.39 494.03,616.51 495.42,614.60 496.81,613.47 498.19,618.64 499.58,611.39 500.97,611.13 502.36,615.88 503.75,613.27 505.14,611.26 506.53,603.66 507.92,609.01 509.31,602.81 510.69,612.07 512.08,611.26 513.47,610.64 514.86,598.32 516.25,615.69 517.64,601.41 519.03,608.32 520.42,596.50 521.81,604.56 523.19,595.43 524.58,602.35 525.97,575.33 527.36,587.56 528.75,599.90 530.14,600.13 531.53,602.14 532.92,589.26 534.31,603.07 535.69,597.01 537.08,607.99 538.47,602.83 539.86,605.81 541.25,602.32 542.64,616.68 544.03,609.47 545.42,615.80 546.81,610.06 548.19,606.74 549.58,601.13 550.97,614.96 552.36,609.43 553.75,614.14 555.14,613.31 556.53,617.13 557.92,607.94 559.31,613.86" fill="none" stroke="#cc6030" stroke-width="1.3"/>
<polyline points="69.03,550.10 70.42,545.06 71.81,553.16 73.19,558.95 74.58,577.44 75.97,576.62 77.36,580.33 78.75,584.20 80.14,574.64 81.53,582.95 82.92,587.93 84.31,584.68 85.69,575.12 87.08,593.57 88.47,585.65 89.86,584.54 91.25,595.91 92.64,598.77 94.03,602.19 95.42,603.23 96.81,601.93 98.19,609.05 99.58,598.42 100.97,604.24 102.36,605.94 103.75,607.73 105.14,607.14 106.53,604.38 107.92,604.76 109.31,596.98 110.69,589.98 112.08,601.15 113.47,599.06 114.86,596.19 116.25,603.67 117.64,604.47 119.03,603.95 120.42,597.85 121.81,607.81 123.19,614.63 124.58,614.60 125.97,621.00 127.36,622.23 128.75,625.55 130.14,625.15 131.53,626.56 132.92,627.78 134.31,629.16 135.69,630.53 137.08,632.46 138.47,632.92 139.86,633.37 141.25,634.64 142.64,636.18 144.03,636.76 145.42,632.68 146.81,632.40 148.19,633.02 149.58,632.78 150.97,636.89 152.36,638.55 153.75,640.77 155.14,640.74 156.53,637.37 157.92,637.35 159.31,636.83 160.69,634.23 162.08,635.37 163.47,636.58 164.86,639.25 166.25,640.26 167.64,641.74 169.03,644.15 170.42,647.74 171.81,647.58 173.19,647.75 174.58,644.72 175.97,646.98 177.36,645.46 178.75,647.61 180.14,648.18 181.53,646.81 182.92,647.39 184.31,649.08 185.69,649.11 187.08,648.58 188.47,648.93 189.86,649.37 191.25,648.62 192.64,649.65 194.03,650.63 195.42,650.13 196.81,649.14 198.19,650.73 199.58,652.73 200.97,649.81 202.36,650.68 203.75,651.32 205.14,651.44 206.53,649.80 207.92,650.24 209.31,649.07 210.69,650.21 212.08,649.84 213.47,650.01 214.86,649.40 216.25,649.79 217.64,650.58 219.03,651.09 220.42,650.75 221.81,652.45 223.19,650.90 224.58,651.79 225.97,649.71 227.36,650.44 228.75,649.19 230.14,651.25 231.53,652.04 232.92,652.57 234.31,650.52 235.69,651.09 237.08,651.71 238.47,651.48 239.86,651.85 241.25,651.04 242.64,653.08 244.03,653.14 245.42,651.90 246.81,653.55 248.19,650.90 249.58,652.11 250.97,650.74 252.36,651.11 253.75,649.69 255.14,649.49 256.53,650.22 257.92,649.93 259.31,650.63 260.69,650.14 262.08,650.39 263.47,651.18 264.86,648.74 266.25,650.39 267.64,650.78 269.03,650.40 270.42,649.91 271.81,648.84 273.19,648.36 274.58,647.76 275.97,648.83 277.36,647.69 278.75,645.54 280.14,649.14 281.53,647.74 282.92,645.54 284.31,646.36 285.69,649.11 287.08,648.85 288.47,646.54 289.86,645.91 291.25,645.51 292.64,646.35 294.03,643.80 295.42,644.41 296.81,646.07 298.19,646.28 299.58,646.40 300.97,647.60 302.36,645.83 303.75,643.84 305.14,644.46 306.53,642.81 307.92,644.40 309.31,646.29 310.69,643.01 312.08,644.24 313.47,642.18 314.86,644.07 316.25,645.04 317.64,643.51 319.03,642.91 320.42,646.14 321.81,646.98 323.19,644.63 324.58,645.76 325.97,646.21 327.36,647.78 328.75,647.83 330.14,646.08 331.53,646.87 332.92,646.69 334.31,647.03 335.69,647.86 337.08,648.43 338.47,648.77 339.86,646.05 341.25,648.24 342.64,648.15 344.03,645.61 345.42,648.47 346.81,644.96 348.19,648.83 349.58,646.95 350.97,646.68 352.36,644.62 353.75,645.22 355.14,647.27 356.53,646.66 357.92,645.69 359.31,647.54 360.69,647.36 362.08,647.47 363.47,647.30 364.86,645.75 366.25,645.01 367.64,645.86 369.03,648.79 370.42,642.53 371.81,646.40 373.19,644.53 374.58,647.45 375.97,648.93 377.36,649.24 378.75,647.90 380.14,650.00 381.53,649.83 382.92,648.40 384.31,649.28 385.69,650.08 387.08,648.73 388.47,649.42 389.86,649.25 391.25,649.30 392.64,648.45 394.03,649.05 395.42,649.41 396.81,646.67 398.19,648.61 399.58,646.70 400.97,644.88 402.36,648.09 403.75,647.85 405.14,647.69 406.53,647.98 407.92,646.15 409.31,646.59 410.69,648.61 412.08,647.02 413.47,648.68 414.86,645.64 416.25,645.38 417.64,646.40 419.03,645.35 420.42,644.77 421.81,646.56 423.19,646.02 424.58,646.26 425.97,645.20 427.36,647.08 428.75,647.76 430.14,646.44 431.53,647.61 432.92,647.14 434.31,647.66 435.69,646.79 437.08,647.58 438.47,648.83 439.86,647.47 441.25,646.50 442.64,647.44 444.03,647.31 445.42,646.67 446.81,648.48 448.19,646.51 449.58,647.52 450.97,645.47 452.36,646.72 453.75,646.50 455.14,646.32 456.53,643.15 457.92,643.98 459.31,641.06 460.69,643.48 462.08,643.37 463.47,644.32 464.86,643.57 466.25,642.16 467.64,644.47 469.03,646.47 470.42,644.10 471.81,644.84 473.19,645.16 474.58,643.59 475.97,644.96 477.36,640.08 478.75,642.81 480.14,640.30 481.53,641.18 482.92,641.53 484.31,642.05 485.69,641.43 487.08,642.17 488.47,643.02 489.86,642.08 491.25,644.05 492.64,642.98 494.03,644.54 495.42,645.67 496.81,644.47 498.19,645.81 499.58,645.02 500.97,642.83 502.36,644.63 503.75,643.77 505.14,644.19 506.53,640.61 507.92,643.24 509.31,644.92 510.69,641.31 512.08,640.34 513.47,637.82 514.86,640.57 516.25,638.45 517.64,638.17 519.03,636.68 520.42,610.14 521.81,635.98 523.19,633.83 524.58,629.92 525.97,583.63 527.36,592.62 528.75,636.82 530.14,620.77 531.53,638.30 532.92,602.10 534.31,636.94 535.69,634.05 537.08,639.04 538.47,639.19 539.86,620.98 541.25,639.82 542.64,642.79 544.03,641.07 545.42,636.47 546.81,636.15 548.19,639.56 549.58,640.34 550.97,640.29 552.36,636.65 553.75,639.46 555.14,641.30 556.53,638.51 557.92,638.96 559.31,638.52" fill="none" stroke="#8b55a7" stroke-width="1.3"/>
<text x="655" y="475" font-size="17" font-weight="bold">Independent phase-block coherence</text>
<line x1="655" y1="735.00" x2="1115" y2="735.00" stroke="#dce3e9"/>
<text x="647" y="739.00" font-size="11" text-anchor="end">0</text>
<line x1="655" y1="673.75" x2="1115" y2="673.75" stroke="#dce3e9"/>
<text x="647" y="677.75" font-size="11" text-anchor="end">0.25</text>
<line x1="655" y1="612.50" x2="1115" y2="612.50" stroke="#dce3e9"/>
<text x="647" y="616.50" font-size="11" text-anchor="end">0.5</text>
<line x1="655" y1="551.25" x2="1115" y2="551.25" stroke="#dce3e9"/>
<text x="647" y="555.25" font-size="11" text-anchor="end">0.75</text>
<line x1="655" y1="490.00" x2="1115" y2="490.00" stroke="#dce3e9"/>
<text x="647" y="494.00" font-size="11" text-anchor="end">1</text>
<line x1="655.00" y1="490" x2="655.00" y2="735" stroke="#edf0f3"/>
<text x="655.00" y="752" font-size="11" text-anchor="middle">0</text>
<line x1="731.67" y1="490" x2="731.67" y2="735" stroke="#edf0f3"/>
<text x="731.67" y="752" font-size="11" text-anchor="middle">3</text>
<line x1="808.33" y1="490" x2="808.33" y2="735" stroke="#edf0f3"/>
<text x="808.33" y="752" font-size="11" text-anchor="middle">6</text>
<line x1="885.00" y1="490" x2="885.00" y2="735" stroke="#edf0f3"/>
<text x="885.00" y="752" font-size="11" text-anchor="middle">9</text>
<line x1="961.67" y1="490" x2="961.67" y2="735" stroke="#edf0f3"/>
<text x="961.67" y="752" font-size="11" text-anchor="middle">12</text>
<line x1="1038.33" y1="490" x2="1038.33" y2="735" stroke="#edf0f3"/>
<text x="1038.33" y="752" font-size="11" text-anchor="middle">15</text>
<line x1="1115.00" y1="490" x2="1115.00" y2="735" stroke="#edf0f3"/>
<text x="1115.00" y="752" font-size="11" text-anchor="middle">18</text>
<text x="885.0" y="770" font-size="12" text-anchor="middle">Frequency (kHz)</text>
<polyline points="663.31,722.65 664.58,723.58 665.86,717.12 667.14,685.58 668.42,626.36 669.69,591.68 670.97,542.77 672.25,525.38 673.53,516.10 674.81,501.75 676.08,494.68 677.36,497.23 678.64,497.30 679.92,493.13 681.19,494.85 682.47,496.52 683.75,494.34 685.03,493.56 686.31,493.58 687.58,493.03 688.86,493.66 690.14,493.37 691.42,496.28 692.69,497.49 693.97,500.09 695.25,494.55 696.53,494.15 697.81,492.84 699.08,493.72 700.36,495.04 701.64,502.06 702.92,494.84 704.19,496.00 705.47,500.24 706.75,504.93 708.03,500.71 709.31,499.19 710.58,497.65 711.86,495.23 713.14,492.77 714.42,492.43 715.69,492.35 716.97,491.51 718.25,491.54 719.53,491.48 720.81,492.40 722.08,492.92 723.36,493.80 724.64,491.69 725.92,491.98 727.19,491.66 728.47,492.88 729.75,491.84 731.03,492.42 732.31,491.13 733.58,491.81 734.86,492.14 736.14,494.37 737.42,499.80 738.69,495.91 739.97,502.80 741.25,508.23 742.53,500.85 743.81,499.70 745.08,511.47 746.36,501.23 747.64,502.48 748.92,493.79 750.19,495.48 751.47,492.10 752.75,493.42 754.03,491.73 755.31,492.85 756.58,492.67 757.86,493.36 759.14,495.33 760.42,497.67 761.69,505.57 762.97,497.12 764.25,506.06 765.53,501.28 766.81,499.87 768.08,493.35 769.36,494.03 770.64,495.34 771.92,494.85 773.19,501.12 774.47,493.64 775.75,497.37 777.03,495.41 778.31,517.68 779.58,504.62 780.86,501.28 782.14,506.41 783.42,504.04 784.69,505.89 785.97,500.31 787.25,496.56 788.53,496.93 789.81,499.78 791.08,500.70 792.36,506.77 793.64,505.22 794.92,528.73 796.19,506.65 797.47,533.14 798.75,505.08 800.03,528.37 801.31,508.49 802.58,523.57 803.86,508.45 805.14,510.46 806.42,512.61 807.69,512.35 808.97,514.39 810.25,506.98 811.53,506.84 812.81,511.35 814.08,499.88 815.36,509.98 816.64,513.90 817.92,503.72 819.19,503.16 820.47,499.14 821.75,500.07 823.03,498.93 824.31,504.31 825.58,502.77 826.86,500.94 828.14,509.26 829.42,502.84 830.69,502.81 831.97,505.14 833.25,499.42 834.53,510.54 835.81,502.14 837.08,502.04 838.36,500.86 839.64,507.73 840.92,515.22 842.19,520.87 843.47,503.17 844.75,539.43 846.03,545.11 847.31,549.22 848.58,501.87 849.86,497.48 851.14,497.13 852.42,498.35 853.69,498.25 854.97,496.16 856.25,492.93 857.53,493.86 858.81,494.06 860.08,493.74 861.36,492.67 862.64,493.40 863.92,492.23 865.19,497.42 866.47,496.48 867.75,509.04 869.03,548.58 870.31,529.09 871.58,512.25 872.86,500.18 874.14,499.19 875.42,499.39 876.69,497.81 877.97,494.22 879.25,495.63 880.53,499.35 881.81,503.83 883.08,497.19 884.36,495.44 885.64,493.32 886.92,499.95 888.19,492.71 889.47,494.71 890.75,494.09 892.03,493.74 893.31,498.46 894.58,495.68 895.86,497.28 897.14,497.66 898.42,505.32 899.69,495.20 900.97,532.55 902.25,525.52 903.53,524.31 904.81,551.08 906.08,542.33 907.36,549.89 908.64,539.51 909.92,541.21 911.19,524.27 912.47,501.73 913.75,498.12 915.03,496.85 916.31,494.61 917.58,501.05 918.86,500.02 920.14,516.52 921.42,500.64 922.69,509.62 923.97,494.44 925.25,492.40 926.53,491.96 927.81,491.85 929.08,491.47 930.36,491.95 931.64,491.69 932.92,491.86 934.19,491.66 935.47,491.61 936.75,491.78 938.03,491.71 939.31,492.60 940.58,492.07 941.86,495.85 943.14,495.60 944.42,499.30 945.69,498.43 946.97,507.66 948.25,503.68 949.53,515.79 950.81,510.39 952.08,536.49 953.36,532.34 954.64,552.43 955.92,516.39 957.19,521.29 958.47,502.07 959.75,506.22 961.03,498.31 962.31,498.27 963.58,497.18 964.86,499.01 966.14,496.44 967.42,496.92 968.69,495.43 969.97,496.01 971.25,498.82 972.53,496.63 973.81,504.74 975.08,499.63 976.36,506.79 977.64,498.56 978.92,495.87 980.19,494.49 981.47,494.52 982.75,495.10 984.03,494.83 985.31,496.05 986.58,495.99 987.86,496.75 989.14,495.28 990.42,496.58 991.69,494.05 992.97,496.40 994.25,494.62 995.53,494.47 996.81,495.14 998.08,494.35 999.36,494.02 1000.64,493.21 1001.92,493.65 1003.19,493.20 1004.47,493.73 1005.75,494.75 1007.03,495.85 1008.31,495.84 1009.58,496.50 1010.86,497.98 1012.14,498.87 1013.42,504.96 1014.69,508.29 1015.97,500.92 1017.25,504.64 1018.53,519.77 1019.81,513.19 1021.08,502.84 1022.36,506.53 1023.64,499.97 1024.92,503.30 1026.19,497.02 1027.47,503.00 1028.75,500.19 1030.03,498.01 1031.31,498.76 1032.58,497.23 1033.86,497.12 1035.14,496.95 1036.42,497.04 1037.69,498.50 1038.97,504.52 1040.25,507.20 1041.53,516.63 1042.81,517.05 1044.08,547.37 1045.36,546.82 1046.64,533.85 1047.92,604.14 1049.19,515.49 1050.47,563.47 1051.75,505.38 1053.03,525.88 1054.31,509.33 1055.58,526.33 1056.86,513.07 1058.14,517.26 1059.42,505.30 1060.69,506.62 1061.97,519.87 1063.25,502.83 1064.53,505.11 1065.81,498.34 1067.08,500.71 1068.36,495.89 1069.64,502.50 1070.92,500.73 1072.19,512.79 1073.47,503.17 1074.75,506.04 1076.03,500.65 1077.31,517.31 1078.58,516.60 1079.86,504.00 1081.14,500.81 1082.42,509.75 1083.69,574.78 1084.97,508.13 1086.25,501.75 1087.53,505.59 1088.81,501.88 1090.08,530.17 1091.36,502.78 1092.64,499.75 1093.92,507.42 1095.19,501.87 1096.47,547.17 1097.75,514.11 1099.03,528.98 1100.31,548.92 1101.58,551.29 1102.86,519.27 1104.14,567.42 1105.42,540.47 1106.69,553.03 1107.97,530.76 1109.25,568.29 1110.53,558.96 1111.81,563.89 1113.08,567.45 1114.36,660.41" fill="none" stroke="#2768bd" stroke-width="1.3"/>
<polyline points="663.31,720.59 664.58,699.93 665.86,659.84 667.14,606.24 668.42,538.35 669.69,515.31 670.97,499.88 672.25,496.68 673.53,495.30 674.81,492.18 676.08,490.75 677.36,491.22 678.64,491.28 679.92,490.61 681.19,490.78 682.47,491.13 683.75,490.80 685.03,490.60 686.31,490.65 687.58,490.62 688.86,490.77 690.14,490.63 691.42,490.98 692.69,491.18 693.97,491.70 695.25,490.90 696.53,490.72 697.81,490.50 699.08,490.58 700.36,490.89 701.64,492.10 702.92,490.75 704.19,491.27 705.47,491.69 706.75,492.75 708.03,492.14 709.31,491.67 710.58,491.35 711.86,490.91 713.14,490.50 714.42,490.40 715.69,490.42 716.97,490.25 718.25,490.28 719.53,490.24 720.81,490.46 722.08,490.54 723.36,490.65 724.64,490.32 725.92,490.34 727.19,490.34 728.47,490.51 729.75,490.38 731.03,490.44 732.31,490.22 733.58,490.36 734.86,490.47 736.14,490.83 737.42,491.89 738.69,491.11 739.97,492.19 741.25,494.60 742.53,492.23 743.81,492.12 745.08,495.64 746.36,492.76 747.64,493.27 748.92,490.84 750.19,491.26 751.47,490.49 752.75,490.80 754.03,490.33 755.31,490.60 756.58,490.52 757.86,490.64 759.14,491.16 760.42,491.71 761.69,495.22 762.97,491.81 764.25,494.72 765.53,492.66 766.81,492.25 768.08,490.71 769.36,490.81 770.64,491.13 771.92,491.17 773.19,493.84 774.47,490.86 775.75,492.29 777.03,491.27 778.31,498.23 779.58,492.92 780.86,492.23 782.14,493.43 783.42,492.84 784.69,493.00 785.97,492.07 787.25,491.20 788.53,491.27 789.81,491.82 791.08,492.27 792.36,493.21 793.64,493.09 794.92,499.79 796.19,492.86 797.47,503.90 798.75,492.90 800.03,498.69 801.31,493.66 802.58,498.37 803.86,493.30 805.14,493.72 806.42,493.67 807.69,494.68 808.97,494.97 810.25,493.33 811.53,493.23 812.81,493.95 814.08,491.79 815.36,493.48 816.64,495.34 817.92,494.88 819.19,492.20 820.47,491.95 821.75,491.96 823.03,491.71 824.31,492.63 825.58,492.52 826.86,492.17 828.14,493.78 829.42,492.49 830.69,492.77 831.97,492.76 833.25,491.69 834.53,494.39 835.81,494.34 837.08,492.94 838.36,492.68 839.64,493.98 840.92,495.45 842.19,502.06 843.47,493.20 844.75,501.08 846.03,512.96 847.31,515.12 848.58,493.16 849.86,492.08 851.14,491.43 852.42,491.94 853.69,491.70 854.97,491.37 856.25,490.76 857.53,490.81 858.81,491.06 860.08,491.08 861.36,490.63 862.64,490.83 863.92,490.61 865.19,491.94 866.47,492.11 867.75,497.04 869.03,523.38 870.31,506.53 871.58,497.94 872.86,493.51 874.14,493.98 875.42,492.51 876.69,494.20 877.97,491.45 879.25,491.47 880.53,493.18 881.81,494.41 883.08,491.78 884.36,491.88 885.64,491.11 886.92,492.48 888.19,491.02 889.47,491.57 890.75,491.43 892.03,491.17 893.31,493.37 894.58,492.10 895.86,491.94 897.14,492.83 898.42,495.05 899.69,491.55 900.97,510.80 902.25,503.20 903.53,499.36 904.81,519.29 906.08,508.37 907.36,520.58 908.64,510.23 909.92,505.01 911.19,504.72 912.47,493.18 913.75,491.72 915.03,491.93 916.31,493.90 917.58,492.62 918.86,492.53 920.14,499.75 921.42,492.72 922.69,505.51 923.97,490.83 925.25,490.64 926.53,490.44 927.81,490.45 929.08,490.35 930.36,490.39 931.64,490.34 932.92,490.38 934.19,490.39 935.47,490.30 936.75,490.37 938.03,490.36 939.31,490.56 940.58,490.46 941.86,491.18 943.14,491.30 944.42,492.15 945.69,491.69 946.97,493.59 948.25,493.25 949.53,506.16 950.81,494.72 952.08,501.30 953.36,505.79 954.64,511.73 955.92,495.39 957.19,498.27 958.47,492.63 959.75,493.97 961.03,491.71 962.31,492.11 963.58,491.60 964.86,492.29 966.14,491.57 967.42,491.58 968.69,491.27 969.97,491.35 971.25,492.05 972.53,491.92 973.81,493.15 975.08,494.00 976.36,493.53 977.64,492.93 978.92,491.10 980.19,491.16 981.47,490.88 982.75,491.03 984.03,491.01 985.31,491.17 986.58,491.16 987.86,491.34 989.14,491.09 990.42,491.23 991.69,491.01 992.97,491.21 994.25,491.09 995.53,491.14 996.81,491.15 998.08,490.93 999.36,490.87 1000.64,490.75 1001.92,490.71 1003.19,490.55 1004.47,490.73 1005.75,490.99 1007.03,491.25 1008.31,491.29 1009.58,491.31 1010.86,491.77 1012.14,492.01 1013.42,493.33 1014.69,495.28 1015.97,492.28 1017.25,494.47 1018.53,501.29 1019.81,496.37 1021.08,494.12 1022.36,495.64 1023.64,492.80 1024.92,493.48 1026.19,492.49 1027.47,493.47 1028.75,493.00 1030.03,491.63 1031.31,491.77 1032.58,491.53 1033.86,491.67 1035.14,491.51 1036.42,491.47 1037.69,491.84 1038.97,493.17 1040.25,494.96 1041.53,496.38 1042.81,499.71 1044.08,511.83 1045.36,517.81 1046.64,509.82 1047.92,553.26 1049.19,498.06 1050.47,530.00 1051.75,494.06 1053.03,499.05 1054.31,495.00 1055.58,502.63 1056.86,494.76 1058.14,497.21 1059.42,492.93 1060.69,494.49 1061.97,498.61 1063.25,493.62 1064.53,494.55 1065.81,492.11 1067.08,492.57 1068.36,491.38 1069.64,492.62 1070.92,492.44 1072.19,496.38 1073.47,492.98 1074.75,493.70 1076.03,493.26 1077.31,497.29 1078.58,495.35 1079.86,494.24 1081.14,492.53 1082.42,494.36 1083.69,512.75 1084.97,505.72 1086.25,492.44 1087.53,493.84 1088.81,492.33 1090.08,498.15 1091.36,493.17 1092.64,492.67 1093.92,495.33 1095.19,493.55 1096.47,509.49 1097.75,495.83 1099.03,502.02 1100.31,510.09 1101.58,508.56 1102.86,500.73 1104.14,538.18 1105.42,509.83 1106.69,514.82 1107.97,500.53 1109.25,524.39 1110.53,513.49 1111.81,512.21 1113.08,515.25 1114.36,592.36" fill="none" stroke="#18855f" stroke-width="1.3"/>
<polyline points="663.31,691.33 664.58,652.80 665.86,598.95 667.14,541.26 668.42,503.87 669.69,497.30 670.97,492.63 672.25,491.67 673.53,491.22 674.81,490.52 676.08,490.21 677.36,490.37 678.64,490.44 679.92,490.21 681.19,490.30 682.47,490.27 683.75,490.20 685.03,490.22 686.31,490.25 687.58,490.21 688.86,490.27 690.14,490.21 691.42,490.26 692.69,490.34 693.97,490.54 695.25,490.28 696.53,490.20 697.81,490.15 699.08,490.17 700.36,490.28 701.64,490.67 702.92,490.22 704.19,490.30 705.47,490.43 706.75,490.81 708.03,490.52 709.31,490.44 710.58,490.35 711.86,490.25 713.14,490.15 714.42,490.15 715.69,490.14 716.97,490.11 718.25,490.12 719.53,490.11 720.81,490.17 722.08,490.21 723.36,490.26 724.64,490.14 725.92,490.17 727.19,490.16 728.47,490.25 729.75,490.19 731.03,490.20 732.31,490.13 733.58,490.16 734.86,490.20 736.14,490.35 737.42,490.74 738.69,490.48 739.97,490.94 741.25,491.95 742.53,491.27 743.81,490.85 745.08,492.38 746.36,491.30 747.64,492.02 748.92,490.37 750.19,490.43 751.47,490.21 752.75,490.33 754.03,490.21 755.31,490.26 756.58,490.28 757.86,490.32 759.14,490.45 760.42,490.84 761.69,492.96 762.97,490.91 764.25,492.69 765.53,491.37 766.81,491.08 768.08,490.51 769.36,490.49 770.64,490.76 771.92,490.66 773.19,491.50 774.47,490.48 775.75,492.18 777.03,490.67 778.31,494.59 779.58,491.10 780.86,490.93 782.14,491.88 783.42,491.22 784.69,491.27 785.97,490.94 787.25,490.67 788.53,490.65 789.81,490.86 791.08,490.86 792.36,491.50 793.64,491.19 794.92,493.53 796.19,491.12 797.47,495.02 798.75,491.06 800.03,493.15 801.31,491.89 802.58,492.58 803.86,491.41 805.14,491.45 806.42,491.60 807.69,491.88 808.97,491.83 810.25,491.40 811.53,491.18 812.81,491.76 814.08,490.80 815.36,491.59 816.64,492.15 817.92,491.52 819.19,491.07 820.47,490.82 821.75,491.04 823.03,490.75 824.31,491.34 825.58,491.08 826.86,490.89 828.14,491.71 829.42,491.03 830.69,491.16 831.97,491.46 833.25,491.01 834.53,491.87 835.81,491.74 837.08,491.47 838.36,491.17 839.64,491.90 840.92,492.47 842.19,504.42 843.47,492.03 844.75,499.68 846.03,507.09 847.31,498.77 848.58,491.60 849.86,491.56 851.14,490.88 852.42,491.07 853.69,490.91 854.97,491.11 856.25,490.84 857.53,490.71 858.81,490.86 860.08,490.97 861.36,490.64 862.64,490.82 863.92,490.69 865.19,491.37 866.47,491.74 867.75,496.49 869.03,508.82 870.31,501.33 871.58,501.74 872.86,491.83 874.14,492.39 875.42,492.05 876.69,496.25 877.97,491.11 879.25,491.39 880.53,492.64 881.81,493.82 883.08,491.32 884.36,491.46 885.64,491.11 886.92,491.88 888.19,491.09 889.47,491.26 890.75,490.98 892.03,491.34 893.31,492.54 894.58,491.49 895.86,491.47 897.14,492.17 898.42,493.01 899.69,490.99 900.97,496.93 902.25,502.70 903.53,496.29 904.81,513.31 906.08,501.96 907.36,505.48 908.64,507.92 909.92,500.33 911.19,498.87 912.47,492.80 913.75,491.67 915.03,491.72 916.31,492.13 917.58,492.18 918.86,492.73 920.14,495.30 921.42,491.95 922.69,499.03 923.97,491.29 925.25,490.81 926.53,490.65 927.81,490.82 929.08,490.65 930.36,490.74 931.64,490.83 932.92,490.85 934.19,490.81 935.47,490.86 936.75,490.92 938.03,490.83 939.31,491.00 940.58,490.97 941.86,491.20 943.14,491.31 944.42,491.75 945.69,491.35 946.97,492.25 948.25,492.24 949.53,494.41 950.81,492.97 952.08,498.34 953.36,501.10 954.64,513.49 955.92,494.99 957.19,495.80 958.47,492.41 959.75,493.63 961.03,492.50 962.31,492.35 963.58,491.77 964.86,492.63 966.14,491.55 967.42,491.71 968.69,491.39 969.97,491.63 971.25,491.61 972.53,491.85 973.81,492.20 975.08,492.37 976.36,492.54 977.64,491.91 978.92,491.16 980.19,491.27 981.47,491.36 982.75,491.37 984.03,491.29 985.31,491.68 986.58,491.46 987.86,491.46 989.14,491.59 990.42,491.46 991.69,491.32 992.97,491.52 994.25,491.67 995.53,491.38 996.81,491.71 998.08,491.68 999.36,491.56 1000.64,491.43 1001.92,491.47 1003.19,491.65 1004.47,491.43 1005.75,492.02 1007.03,492.14 1008.31,491.93 1009.58,492.16 1010.86,492.41 1012.14,492.54 1013.42,493.56 1014.69,495.38 1015.97,493.24 1017.25,493.72 1018.53,497.11 1019.81,494.37 1021.08,494.09 1022.36,493.36 1023.64,492.89 1024.92,492.82 1026.19,492.83 1027.47,493.01 1028.75,492.80 1030.03,491.93 1031.31,492.31 1032.58,492.20 1033.86,491.78 1035.14,491.98 1036.42,491.78 1037.69,492.04 1038.97,492.58 1040.25,493.69 1041.53,494.05 1042.81,495.86 1044.08,499.37 1045.36,505.23 1046.64,497.34 1047.92,526.16 1049.19,496.16 1050.47,517.95 1051.75,495.42 1053.03,496.51 1054.31,493.72 1055.58,497.67 1056.86,493.78 1058.14,494.34 1059.42,493.67 1060.69,493.39 1061.97,495.37 1063.25,492.76 1064.53,494.04 1065.81,492.37 1067.08,492.64 1068.36,492.16 1069.64,493.02 1070.92,492.25 1072.19,495.56 1073.47,493.75 1074.75,492.66 1076.03,493.28 1077.31,494.14 1078.58,492.93 1079.86,493.45 1081.14,493.97 1082.42,494.60 1083.69,501.31 1084.97,495.39 1086.25,493.16 1087.53,493.20 1088.81,493.20 1090.08,494.02 1091.36,493.65 1092.64,493.26 1093.92,493.34 1095.19,493.51 1096.47,500.79 1097.75,496.96 1099.03,498.90 1100.31,519.94 1101.58,502.41 1102.86,496.29 1104.14,521.95 1105.42,501.76 1106.69,502.95 1107.97,500.09 1109.25,524.14 1110.53,514.14 1111.81,505.21 1113.08,518.11 1114.36,583.40" fill="none" stroke="#cc6030" stroke-width="1.3"/>
<polyline points="663.31,728.00 664.58,722.93 665.86,697.10 667.14,655.75 668.42,569.87 669.69,545.01 670.97,517.32 672.25,505.65 673.53,506.05 674.81,495.63 676.08,492.27 677.36,492.70 678.64,496.69 679.92,493.35 681.19,507.13 682.47,500.63 683.75,496.77 685.03,498.85 686.31,504.43 687.58,493.92 688.86,500.96 690.14,517.59 691.42,508.94 692.69,502.71 693.97,511.93 695.25,494.63 696.53,492.73 697.81,492.10 699.08,492.33 700.36,493.89 701.64,498.27 702.92,491.98 704.19,493.72 705.47,496.45 706.75,498.47 708.03,496.15 709.31,497.28 710.58,495.19 711.86,493.25 713.14,491.98 714.42,491.88 715.69,491.67 716.97,491.29 718.25,491.39 719.53,491.40 720.81,492.59 722.08,491.46 723.36,492.09 724.64,491.32 725.92,492.00 727.19,493.71 728.47,498.00 729.75,494.36 731.03,496.72 732.31,491.17 733.58,491.68 734.86,491.85 736.14,493.33 737.42,499.64 738.69,493.43 739.97,498.56 741.25,529.83 742.53,497.59 743.81,499.41 745.08,503.48 746.36,510.63 747.64,513.98 748.92,494.61 750.19,495.34 751.47,491.96 752.75,494.77 754.03,493.50 755.31,497.19 756.58,492.84 757.86,492.40 759.14,496.24 760.42,498.49 761.69,513.93 762.97,501.93 764.25,503.88 765.53,526.13 766.81,494.83 768.08,494.88 769.36,493.68 770.64,500.03 771.92,510.15 773.19,500.38 774.47,493.77 775.75,496.30 777.03,493.40 778.31,503.97 779.58,496.46 780.86,499.87 782.14,507.59 783.42,500.44 784.69,494.69 785.97,492.32 787.25,491.69 788.53,491.76 789.81,492.44 791.08,493.15 792.36,495.27 793.64,499.10 794.92,515.16 796.19,502.43 797.47,512.24 798.75,496.74 800.03,501.87 801.31,495.65 802.58,500.26 803.86,495.65 805.14,497.65 806.42,497.65 807.69,506.04 808.97,510.37 810.25,505.69 811.53,508.84 812.81,499.40 814.08,494.14 815.36,495.92 816.64,497.28 817.92,495.98 819.19,494.79 820.47,493.51 821.75,493.15 823.03,493.34 824.31,494.77 825.58,499.83 826.86,496.33 828.14,506.21 829.42,505.80 830.69,539.28 831.97,533.01 833.25,539.65 834.53,568.83 835.81,524.09 837.08,517.19 838.36,516.80 839.64,538.74 840.92,526.37 842.19,517.37 843.47,504.53 844.75,530.36 846.03,515.09 847.31,506.83 848.58,502.77 849.86,505.42 851.14,508.58 852.42,504.42 853.69,501.40 854.97,504.51 856.25,508.16 857.53,497.23 858.81,521.89 860.08,508.87 861.36,498.35 862.64,494.22 863.92,493.94 865.19,495.86 866.47,492.64 867.75,492.91 869.03,491.35 870.31,491.29 871.58,491.55 872.86,490.64 874.14,491.78 875.42,491.72 876.69,492.93 877.97,508.66 879.25,528.38 880.53,500.83 881.81,512.70 883.08,514.88 884.36,511.70 885.64,502.71 886.92,546.12 888.19,495.40 889.47,496.43 890.75,492.91 892.03,491.41 893.31,491.72 894.58,490.80 895.86,490.83 897.14,491.06 898.42,491.20 899.69,490.81 900.97,492.52 902.25,491.96 903.53,492.18 904.81,493.95 906.08,495.02 907.36,496.45 908.64,505.72 909.92,503.42 911.19,510.34 912.47,505.07 913.75,505.18 915.03,499.45 916.31,500.21 917.58,504.54 918.86,495.87 920.14,518.48 921.42,532.90 922.69,522.83 923.97,507.74 925.25,499.68 926.53,494.03 927.81,493.52 929.08,492.00 930.36,492.12 931.64,491.44 932.92,491.23 934.19,490.96 935.47,490.89 936.75,490.95 938.03,491.32 939.31,491.59 940.58,491.41 941.86,494.97 943.14,494.52 944.42,494.09 945.69,494.25 946.97,498.88 948.25,498.16 949.53,500.39 950.81,520.53 952.08,502.54 953.36,518.86 954.64,496.49 955.92,498.15 957.19,501.61 958.47,494.76 959.75,498.49 961.03,494.82 962.31,495.14 963.58,493.13 964.86,498.78 966.14,495.20 967.42,499.73 968.69,499.65 969.97,508.70 971.25,511.40 972.53,523.84 973.81,501.81 975.08,505.59 976.36,494.49 977.64,494.81 978.92,492.11 980.19,492.41 981.47,491.70 982.75,492.26 984.03,491.82 985.31,492.20 986.58,492.60 987.86,492.80 989.14,492.63 990.42,492.82 991.69,493.48 992.97,493.18 994.25,493.12 995.53,495.02 996.81,496.80 998.08,496.93 999.36,498.75 1000.64,496.11 1001.92,495.89 1003.19,494.09 1004.47,498.48 1005.75,513.55 1007.03,528.42 1008.31,538.58 1009.58,520.63 1010.86,512.38 1012.14,537.87 1013.42,528.92 1014.69,511.33 1015.97,511.62 1017.25,519.52 1018.53,538.20 1019.81,511.31 1021.08,514.53 1022.36,499.89 1023.64,505.03 1024.92,493.69 1026.19,495.11 1027.47,492.32 1028.75,493.88 1030.03,491.92 1031.31,492.44 1032.58,491.82 1033.86,493.27 1035.14,492.51 1036.42,493.00 1037.69,494.06 1038.97,495.96 1040.25,498.76 1041.53,510.46 1042.81,525.61 1044.08,526.98 1045.36,527.95 1046.64,533.28 1047.92,569.87 1049.19,510.84 1050.47,580.75 1051.75,522.49 1053.03,547.63 1054.31,572.85 1055.58,593.05 1056.86,556.13 1058.14,546.51 1059.42,579.36 1060.69,546.00 1061.97,527.67 1063.25,510.87 1064.53,502.77 1065.81,500.35 1067.08,496.25 1068.36,496.65 1069.64,497.86 1070.92,496.10 1072.19,497.41 1073.47,494.56 1074.75,495.30 1076.03,494.20 1077.31,495.32 1078.58,507.95 1079.86,495.13 1081.14,495.34 1082.42,497.92 1083.69,529.08 1084.97,515.97 1086.25,494.91 1087.53,501.86 1088.81,494.95 1090.08,518.55 1091.36,496.11 1092.64,497.24 1093.92,499.15 1095.19,497.27 1096.47,520.68 1097.75,502.69 1099.03,509.34 1100.31,544.02 1101.58,547.24 1102.86,595.46 1104.14,568.67 1105.42,607.37 1106.69,528.83 1107.97,619.43 1109.25,572.50 1110.53,545.22 1111.81,552.28 1113.08,516.20 1114.36,533.62" fill="none" stroke="#8b55a7" stroke-width="1.3"/>
<text x="60" y="802" font-size="13">Higher level improves low bands; residual distortion/time variation limits gains above 8 kHz. Stereo wins at this placement.</text>
<text x="60" y="824" font-size="12">50 Hz power averages. Residual includes noise, nonlinearities, channel variation and estimation error; curves are not modem capacity or reliability.</text>
</g></svg>
